<?xml version="1.0" ?>

<!-- Uploaded to: SVG Repo, www.svgrepo.com, Generator: SVG Repo Mixer Tools -->
<svg width="800px" height="800px" viewBox="0 0 32 32" id="svg5" version="1.1" xmlns="http://www.w3.org/2000/svg" xmlns:svg="http://www.w3.org/2000/svg">

<defs id="defs2"/>

<g id="layer1" transform="translate(36,-148)">

<path d="m -28,150 c -2.749574,0 -5,2.25042 -5,5 v 22 a 1.0001,1.0001 0 0 0 1.832031,0.55469 L -30,175.80273 l 1.167969,1.75196 a 1.0001,1.0001 0 0 0 1.664062,0 L -26,175.80273 l 1.167969,1.75196 a 1.0001,1.0001 0 0 0 1.664062,0 L -22,175.80273 l 1.167969,1.75196 a 1.0001,1.0001 0 0 0 1.664062,0 L -18,175.80273 l 1.167969,1.75196 A 1.0001,1.0001 0 0 0 -15,177 v -12 h 7 a 1.0001,1.0001 0 0 0 1,-1 v -9 c 0,-2.74958 -2.2504259,-5 -5,-5 z m 0,2 h 12.007812 C -16.624083,152.83731 -17,153.87659 -17,155 v 1 8 9.69727 l -0.167969,-0.25196 a 1.0001,1.0001 0 0 0 -1.664062,0 L -20,175.19727 l -1.167969,-1.75196 a 1.0001,1.0001 0 0 0 -1.664062,0 L -24,175.19727 l -1.167969,-1.75196 a 1.0001,1.0001 0 0 0 -1.664062,0 L -28,175.19727 l -1.167969,-1.75196 a 1.0001,1.0001 0 0 0 -1.664062,0 L -31,173.69727 V 155 c 0,-1.6687 1.331303,-3 3,-3 z m 16,0 c 1.668697,0 3,1.3313 3,3 v 8 h -6 v -7 -1 c 0,-1.6687 1.331303,-3 3,-3 z" id="rect1587" style="color:#000000;fill:#000000;fill-rule:evenodd;stroke-linecap:round;stroke-linejoin:round;stroke-miterlimit:4.1;-inkscape-stroke:none"/>

<path d="m -28,162 a 1,1 0 0 0 -1,1 1,1 0 0 0 1,1 h 4 a 1,1 0 0 0 1,-1 1,1 0 0 0 -1,-1 z" id="path6019" style="color:#000000;fill:#000000;fill-rule:evenodd;stroke-linecap:round;stroke-linejoin:round;stroke-miterlimit:4.1;-inkscape-stroke:none"/>

<path d="m -28,165 a 1,1 0 0 0 -1,1 1,1 0 0 0 1,1 h 8 a 1,1 0 0 0 1,-1 1,1 0 0 0 -1,-1 z" id="path6021" style="color:#000000;fill:#000000;fill-rule:evenodd;stroke-linecap:round;stroke-linejoin:round;stroke-miterlimit:4.1;-inkscape-stroke:none"/>

<path d="m -28,168 a 1,1 0 0 0 -1,1 1,1 0 0 0 1,1 h 8 a 1,1 0 0 0 1,-1 1,1 0 0 0 -1,-1 z" id="path6023" style="color:#000000;fill:#000000;fill-rule:evenodd;stroke-linecap:round;stroke-linejoin:round;stroke-miterlimit:4.1;-inkscape-stroke:none"/>

<path d="m -28,155 a 1.0001,1.0001 0 0 0 -1,1 v 4 a 1.0001,1.0001 0 0 0 1,1 h 4 a 1.0001,1.0001 0 0 0 1,-1 v -4 a 1.0001,1.0001 0 0 0 -1,-1 z m 1,2 h 2 v 2 h -2 z" id="rect6025" style="color:#000000;fill:#000000;fill-rule:evenodd;stroke-linecap:round;stroke-linejoin:round;stroke-miterlimit:4.1;-inkscape-stroke:none"/>

</g>

</svg>