<?xml version="1.0" encoding="utf-8"?><!-- Uploaded to: SVG Repo, www.svgrepo.com, Generator: SVG Repo Mixer Tools -->
<svg width="800px" height="800px" viewBox="0 0 24 24" fill="none" xmlns="http://www.w3.org/2000/svg">
<path fill-rule="evenodd" clip-rule="evenodd" d="M15.2929 3.29289C15.6834 2.90237 16.3166 2.90237 16.7071 3.29289L22.3657 8.95147C23.1216 9.70743 22.5862 11 21.5172 11H2C1.44772 11 1 10.5523 1 10C1 9.44772 1.44772 9 2 9H19.5858L15.2929 4.70711C14.9024 4.31658 14.9024 3.68342 15.2929 3.29289ZM4.41421 15H22C22.5523 15 23 14.5523 23 14C23 13.4477 22.5523 13 22 13H2.48284C1.41376 13 0.878355 14.2926 1.63431 15.0485L7.29289 20.7071C7.68342 21.0976 8.31658 21.0976 8.70711 20.7071C9.09763 20.3166 9.09763 19.6834 8.70711 19.2929L4.41421 15Z" fill="#fff"/>
</svg>
