<?xml version="1.0" encoding="UTF-8"?>
<svg id="Capa_1" data-name="Capa 1" xmlns="http://www.w3.org/2000/svg" viewBox="0 0 1080 1080">
  <defs>
    <style>
      .cls-1 {
        stroke-linecap: round;
        stroke-linejoin: round;
      }

      .cls-1, .cls-2 {
        fill: none;
        stroke: #fff;
        stroke-width: 33px;
      }

      .cls-2 {
        stroke-miterlimit: 10;
      }
    </style>
  </defs>
  <path class="cls-1" d="M175.18,723.69c-18.62-.72-44.56-3.79-73.7-14.04-23.66-8.32-42.43-18.92-56.15-28.08,3.77-96.01,39.23-178.15,96.51-200.05,31.03-11.86,82.63-11.46,86.86-11.41,33.47.42,60.99,6.19,79.84,11.41,8.41,1.97,18.39,5.17,28.95,10.53,24.53,12.44,39.83,30.27,48.26,42.12"/>
  <path class="cls-1" d="M290.99,786.86c38.02,21.94,125.79,65.8,245.67,65.8,43.9,0,141.84-5.88,245.67-65.8,3.84-14.2,31.22-122.11-35.97-204.43-23.97-29.36-52.24-46-72.82-55.35-29.07-11.21-76-25.27-135.12-25.81-62.75-.57-112.38,14.33-142.14,25.81-20.05,12.25-47.42,32.88-70.19,65.88-56.18,81.39-39.48,172.93-35.1,193.91Z"/>
  <path class="cls-1" d="M698.13,527.08c9.3-9.03,22.33-19.92,39.48-29.76,20.46-11.73,39.5-17.78,53.5-21.06,14.34-1.47,34.55-3.01,58.8-3.07,36.87-.1,59.85.74,86.86,8.34,16.91,4.75,42.1,14.75,64.05,36.85,60.44,60.85,37.78,154.48,35.97,161.44-15.77,8.89-35.12,18.26-57.91,26.32-27.04,9.57-51.68,14.72-71.95,17.55"/>
  <circle class="cls-2" cx="226.51" cy="351.71" r="118.01"/>
  <circle class="cls-2" cx="538.42" cy="353.65" r="147.62"/>
  <circle class="cls-2" cx="851.65" cy="355.18" r="118.01"/>
</svg>