<?xml version="1.0" encoding="utf-8"?>
<!-- Generator: Adobe Illustrator 28.1.0, SVG Export Plug-In . SVG Version: 6.00 Build 0)  -->
<svg version="1.1" id="Capa_1" xmlns="http://www.w3.org/2000/svg" xmlns:xlink="http://www.w3.org/1999/xlink" x="0px" y="0px"
	 viewBox="0 0 189.19 180" style="enable-background:new 0 0 189.19 180;" xml:space="preserve">
<style type="text/css">
	.st0{fill:url(#SVGID_1_);}
	.st1{fill:url(#SVGID_00000003790499678376321530000001212681060335324047_);}
	.st2{fill:url(#SVGID_00000161623630911374134060000003799907208017492133_);}
</style>
<g>
	<linearGradient id="SVGID_1_" gradientUnits="userSpaceOnUse" x1="-10.9065" y1="142.4919" x2="267.902" y2="157.0451">
		<stop  offset="1.491781e-07" style="stop-color:#5BBDB0"/>
		<stop  offset="0.1757" style="stop-color:#59BBB1"/>
		<stop  offset="0.3306" style="stop-color:#56B5B2"/>
		<stop  offset="0.4777" style="stop-color:#51ABB4"/>
		<stop  offset="0.62" style="stop-color:#4B9EB5"/>
		<stop  offset="0.7588" style="stop-color:#468BB4"/>
		<stop  offset="0.8931" style="stop-color:#4373AF"/>
		<stop  offset="1" style="stop-color:#435BA6"/>
	</linearGradient>
	<polygon class="st0" points="184.82,133.17 184.82,129.37 183.5,129.97 183.5,126.23 182.62,126.62 182.62,122.93 160.45,132.89 
		158.97,133.56 95.39,162.11 29.35,133.2 26.95,132.15 4.79,122.45 4.79,126.12 3.91,125.74 3.91,129.46 2.59,128.88 2.59,132.65 
		1.26,132.07 1.26,136.48 24.3,146.57 95.46,177.71 163.1,147.33 186.15,136.98 186.15,132.57 	"/>
	
		<linearGradient id="SVGID_00000134930543030202374110000004047031183811134392_" gradientUnits="userSpaceOnUse" x1="-4.9113" y1="27.6352" x2="273.8972" y2="42.1884">
		<stop  offset="1.491781e-07" style="stop-color:#5BBDB0"/>
		<stop  offset="0.1757" style="stop-color:#59BBB1"/>
		<stop  offset="0.3306" style="stop-color:#56B5B2"/>
		<stop  offset="0.4777" style="stop-color:#51ABB4"/>
		<stop  offset="0.62" style="stop-color:#4B9EB5"/>
		<stop  offset="0.7588" style="stop-color:#468BB4"/>
		<stop  offset="0.8931" style="stop-color:#4373AF"/>
		<stop  offset="1" style="stop-color:#435BA6"/>
	</linearGradient>
	<path style="fill:url(#SVGID_00000134930543030202374110000004047031183811134392_);" d="M66.66,42.02
		c0.13,0.08,0.27,0.14,0.39,0.22c0.13,0.08,0.24,0.17,0.34,0.3c0.33,0.16,0.65,0.33,0.97,0.51c0.32,0.18,0.63,0.37,0.94,0.56
		c0.2,0.13,0.4,0.21,0.59,0.27c0.07,0.02,0.13,0.02,0.2,0.03c0.12,0.02,0.23,0.05,0.35,0.05c0.01,0,0.02,0,0.03-0.01
		c0.14,0,0.27-0.03,0.41-0.07c0.07-0.01,0.13-0.02,0.2-0.04c0.2-0.07,0.41-0.16,0.61-0.28c4.12-2.37,8.24-4.73,12.35-7.12
		c0.19-0.11,0.36-0.18,0.53-0.23c0.06-0.02,0.11-0.02,0.17-0.03c0.11-0.02,0.22-0.04,0.33-0.04c0.12,0,0.23,0.03,0.35,0.06
		c0.06,0.01,0.11,0.01,0.17,0.03c0.17,0.06,0.35,0.14,0.53,0.25c1.74,1.05,3.52,2.05,5.29,3.05c0.29,0.16,0.57,0.33,0.86,0.5
		c0.92,0.54,1.84,1.06,2.79,1.54c0.95,0.48,1.92,0.91,2.92,1.27c0.5,0.17,0.98,0.36,1.49,0.5c1.23,0.45,2.49,0.59,3.77,0.64
		c0.76,0.03,1.53,0.02,2.3,0.03l0,0c0.07,0,0.15,0,0.22,0c0.31,0,0.63-0.02,0.94-0.03c0.16-0.01,0.31-0.01,0.47-0.01
		c0.5-0.03,1.01-0.06,1.51-0.11c1.56-0.14,3.04-0.59,4.49-1.12c0.14-0.05,0.28-0.09,0.41-0.11c0.04-0.01,0.09-0.01,0.13-0.01
		c0.09-0.01,0.17-0.02,0.26-0.01c0.1,0,0.2,0.02,0.3,0.04c0.05,0.01,0.1,0.01,0.15,0.03c0.15,0.05,0.29,0.11,0.44,0.2
		c0.81,0.48,1.6,1,2.53,1.22c0.11,0,0.21,0,0.32,0c1-0.24,1.85-0.78,2.71-1.31c0.45-0.28,0.45-0.58,0.03-0.91
		c-0.46-0.37-1-0.62-1.51-0.91c-0.98-0.57-0.98-0.71-0.12-1.45c0.17-0.14,0.33-0.29,0.49-0.44c0.47-0.45,0.89-0.93,1.21-1.47
		c0.43-0.71,0.69-1.51,0.68-2.45c-0.01-0.73-0.02-1.46-0.3-2.13c-0.09-0.22-0.21-0.44-0.38-0.65c-0.86-1.12-1.9-2.03-3.05-2.82
		c-2.24-1.54-4.64-2.82-6.99-4.17c-2.52-1.45-5.04-2.91-7.59-4.33c-0.12-0.07-0.25-0.12-0.38-0.16c-0.04-0.01-0.08-0.02-0.12-0.03
		c-0.1-0.02-0.2-0.04-0.3-0.04c-0.03,0-0.05-0.01-0.08-0.01c-0.01,0-0.03,0.01-0.04,0.01c-0.14,0-0.28,0.02-0.43,0.06
		c-0.69,0.18-1.27,0.55-1.86,0.91c-0.2,0.12-0.39,0.24-0.59,0.35c-0.96,0.54-1.91,1.08-2.86,1.63c-0.95,0.55-1.9,1.1-2.85,1.65
		c-0.13,0.08-0.26,0.13-0.39,0.17c-0.04,0.01-0.08,0.01-0.13,0.02c-0.08,0.02-0.17,0.04-0.25,0.04c-0.08,0-0.16-0.02-0.24-0.03
		c-0.04-0.01-0.08-0.01-0.12-0.02c-0.12-0.04-0.25-0.09-0.38-0.17c-0.59-0.36-1.24-0.65-1.81-1.05c-0.2-0.14-0.39-0.24-0.58-0.31
		c-0.06-0.02-0.12-0.02-0.18-0.04c-0.13-0.03-0.25-0.07-0.38-0.07c0,0-0.01,0-0.01,0c-0.12,0-0.24,0.04-0.35,0.06
		c-0.06,0.01-0.12,0.01-0.18,0.03c-0.19,0.07-0.37,0.16-0.56,0.3c-0.59,0.41-1.26,0.68-1.83,1.12c-0.39,0.3-0.38,0.52,0.01,0.82
		c0.24,0.19,0.51,0.33,0.78,0.48c0.48,0.27,0.97,0.53,1.44,0.83c0.43,0.29,0.42,0.51-0.02,0.79c-0.06,0.04-0.12,0.07-0.19,0.11
		c-6.54,3.76-13.07,7.51-19.61,11.27c-0.59,0.34-1.19,0.65-1.76,1.02C66.06,41.15,66.09,41.69,66.66,42.02z M98,28.14
		c1.09-0.65,2.2-1.26,3.29-1.91c0.14-0.08,0.26-0.14,0.39-0.18c0.04-0.01,0.08-0.01,0.12-0.02c0.08-0.02,0.17-0.03,0.25-0.03
		c0.09,0,0.18,0.03,0.26,0.05c0.04,0.01,0.09,0.01,0.13,0.03c0.13,0.05,0.27,0.12,0.41,0.22c0.79,0.54,1.67,0.97,2.5,1.44v0l0,0
		c0.31,0.19,0.63,0.37,0.94,0.56c1.59,0.92,3.18,1.85,4.79,2.74c0.43,0.24,0.85,0.49,1.25,0.77c0.4,0.28,0.79,0.58,1.16,0.9
		c1.31,1.15,1.43,2.55,0.35,3.92c-0.12,0.15-0.22,0.28-0.32,0.39c-0.03,0.04-0.06,0.06-0.09,0.09c-0.06,0.07-0.13,0.14-0.19,0.19
		c-0.03,0.03-0.06,0.05-0.1,0.07c-0.05,0.04-0.1,0.07-0.15,0.1c-0.03,0.02-0.07,0.03-0.1,0.04c-0.05,0.02-0.1,0.03-0.15,0.03
		c-0.04,0-0.08,0.01-0.12,0c-0.03,0-0.06-0.01-0.1-0.01c-0.05-0.01-0.11-0.03-0.17-0.05c-0.04-0.01-0.07-0.02-0.11-0.04
		c-0.07-0.03-0.14-0.06-0.22-0.1c-0.03-0.02-0.07-0.03-0.1-0.05c-0.12-0.06-0.24-0.13-0.39-0.21c-4.52-2.6-9.04-5.2-13.56-7.8
		c-0.28-0.16-0.73-0.24-0.74-0.62C97.26,28.25,97.74,28.29,98,28.14z M89.92,32.75c1.02-0.55,2.05-1.1,3.02-1.73
		c0.16-0.1,0.31-0.18,0.46-0.23c0.05-0.02,0.1-0.01,0.15-0.03c0.1-0.02,0.19-0.05,0.29-0.05c0.1,0,0.2,0.03,0.3,0.05
		c0.05,0.01,0.1,0.01,0.15,0.03c0.15,0.05,0.31,0.12,0.47,0.22c1.21,0.72,2.43,1.43,3.66,2.13c1.22,0.7,2.45,1.4,3.67,2.11
		c0.12,0.07,0.26,0.13,0.38,0.19c0.32,0.19,0.63,0.37,0.95,0.56c0.62,0.35,1.23,0.7,1.85,1.05c0.32,0.19,0.63,0.37,0.95,0.56
		c0.62,0.35,1.23,0.7,1.85,1.05h0c0.28,0.18,0.57,0.34,0.85,0.53c0.16,0.11,0.35,0.23,0.12,0.45h0c-0.44,0.14-0.88,0.25-1.32,0.34
		c-0.09,0.02-0.19,0.04-0.28,0.06c-0.42,0.08-0.84,0.13-1.26,0.16c-0.07,0-0.14,0-0.2,0.01c-0.37,0.02-0.73,0.02-1.09,0
		c-0.1,0-0.2-0.01-0.29-0.01c-0.41-0.03-0.82-0.08-1.23-0.14c-0.08-0.01-0.15-0.03-0.23-0.05c-0.34-0.06-0.68-0.14-1.02-0.24
		c-0.1-0.03-0.21-0.05-0.31-0.08c-0.4-0.12-0.8-0.25-1.19-0.4c-0.05-0.02-0.1-0.04-0.15-0.06c-0.35-0.14-0.7-0.29-1.05-0.46
		c-0.1-0.05-0.21-0.1-0.31-0.15c-0.39-0.19-0.78-0.39-1.16-0.61c-2.58-1.46-5.14-2.95-7.71-4.43c-0.11-0.06-0.22-0.12-0.32-0.19
		C89.57,33.15,89.51,32.97,89.92,32.75z"/>
	
		<linearGradient id="SVGID_00000116951128569429400420000010664086030005823400_" gradientUnits="userSpaceOnUse" x1="-7.4788" y1="76.8229" x2="271.3297" y2="91.3761">
		<stop  offset="1.491781e-07" style="stop-color:#5BBDB0"/>
		<stop  offset="0.1757" style="stop-color:#59BBB1"/>
		<stop  offset="0.3306" style="stop-color:#56B5B2"/>
		<stop  offset="0.4777" style="stop-color:#51ABB4"/>
		<stop  offset="0.62" style="stop-color:#4B9EB5"/>
		<stop  offset="0.7588" style="stop-color:#468BB4"/>
		<stop  offset="0.8931" style="stop-color:#4373AF"/>
		<stop  offset="1" style="stop-color:#435BA6"/>
	</linearGradient>
	<path style="fill:url(#SVGID_00000116951128569429400420000010664086030005823400_);" d="M4.79,122.33l90.6,39.66l87.23-39.18
		l-19.03-8.51V53.21l11.72-5.26v-9.73L95.25,2.39L12.09,37.78v9.73l14.38,6.29v59.31L4.79,122.33z M14.15,37.79L95.24,3.28
		l78.08,34.94l-21.02,9.44h0l-3.87,1.74L95.25,73.28L30.24,44.87l0.03-0.03L14.15,37.79z M145.9,61.16v45.22l-11.95-5.34V66.52
		L145.9,61.16z M116.26,74.47v18.65l-11.94-5.35v-7.94L116.26,74.47z M86.63,80.13v7.38l-12.39,5.27V74.71L86.63,80.13z
		 M56.55,66.96v33.35l-12.39,5.27V61.54L56.55,66.96z M43.35,51.45v0.01l-7.19-3.15L43.35,51.45z M34.87,126.91
		c6.35,0,11.5-2.58,11.5-5.75c0-1.27-0.82-2.45-2.21-3.39v-11.31l12.39-5.27v27.98c-1.92,1.03-3.1,2.41-3.1,3.93
		c0,3.17,5.15,5.75,11.5,5.75c6.35,0,11.5-2.58,11.5-5.75c0-1.27-0.82-2.44-2.21-3.39V93.66l12.39-5.27v51.84
		c-1.92,1.03-3.1,2.41-3.1,3.93c0,3.17,5.15,5.75,11.5,5.75c6.35,0,11.5-2.58,11.5-5.75c0-1.27-0.82-2.45-2.21-3.39v-52.1
		l11.94,5.34v34.95c-1.91,1.03-3.09,2.4-3.09,3.92c0,0.03,0,0.07,0.01,0.11c-0.01,0.03-0.01,0.07-0.01,0.11
		c0,3.17,5.14,5.75,11.5,5.75c6.35,0,11.5-2.58,11.5-5.75c0-0.04-0.01-0.08-0.01-0.12c0-0.04,0.01-0.07,0.01-0.1
		c0-1.27-0.83-2.43-2.22-3.38v-27.57l11.95,5.35v10.64c-0.68,0.41-1.24,0.86-1.67,1.35c-0.91,0.82-1.43,1.77-1.43,2.77
		c0,3.18,5.15,5.75,11.5,5.75c4.67,0,8.68-1.39,10.48-3.39c0.93-0.83,1.46-1.78,1.46-2.8c0-1.4-0.99-2.68-2.65-3.68v-2.73
		l17.03,7.63l-85.23,38.27L6.85,122.34l19.62-8.35v3.24c-1.92,1.03-3.1,2.41-3.1,3.93C23.37,124.33,28.52,126.91,34.87,126.91z"/>
</g>
</svg>
