<?xml version="1.0" encoding="utf-8"?>
<!-- Generator: Adobe Illustrator 28.2.0, SVG Export Plug-In . SVG Version: 6.00 Build 0)  -->
<svg version="1.1" id="Capa_1" xmlns="http://www.w3.org/2000/svg" xmlns:xlink="http://www.w3.org/1999/xlink" x="0px" y="0px"
	 viewBox="0 0 1366 768" style="enable-background:new 0 0 1366 768;" xml:space="preserve">
<style type="text/css">
	.st0{fill:url(#SVGID_1_);}
	.st1{fill:#FFFFFF;}
	.st2{fill:#B31CB7;}
	.st3{fill:#425CFF;}
	.st4{fill:url(#SVGID_00000034060415583227160740000004349693141440674957_);}
	.st5{fill:url(#SVGID_00000035503479499219036910000016372736780393598606_);}
	.st6{fill:url(#SVGID_00000005247591240047892900000006712338724465692826_);}
	.st7{fill:url(#SVGID_00000107576392137380469300000003726798094382662574_);}
	.st8{fill:url(#SVGID_00000030486256051894549300000015927254746207102399_);}
	.st9{fill:url(#SVGID_00000035516663576975298580000012539508903990809274_);}
	.st10{fill:url(#SVGID_00000155136578487796832420000012555266779882033803_);}
	.st11{fill:url(#SVGID_00000034068588879092422950000018000540185234561935_);}
	.st12{fill:url(#SVGID_00000026165361198762465310000015964218065218811303_);}
	.st13{fill:url(#SVGID_00000117644931448328305350000007444310162153778077_);}
	.st14{fill:url(#SVGID_00000030462073204960304350000006317104875527008151_);}
	.st15{fill:url(#SVGID_00000099619951529673174180000011589156367837679550_);}
	.st16{fill:url(#SVGID_00000041292674531431278340000005792092608077462933_);}
</style>
<g>
	<linearGradient id="SVGID_1_" gradientUnits="userSpaceOnUse" x1="1735.0725" y1="153.7052" x2="2509.7673" y2="687.9774">
		<stop  offset="1.491781e-07" style="stop-color:#11DEC1"/>
		<stop  offset="0.0316" style="stop-color:#13DAC3"/>
		<stop  offset="1" style="stop-color:#425CFF"/>
	</linearGradient>
	<rect x="1382" y="-1.57" class="st0" width="1374" height="771.15"/>
	<g>
		<g>
			<path class="st1" d="M1673.86,269.89c0-1.87,0.94-2.93,2.81-2.93h2.22c1.87,0,2.93,1.05,2.93,2.93v26.33
				c0,2.69-0.47,4.8-0.47,4.8h0.23c0,0,5.15-12.05,20.24-12.05c15.8,0,25.63,12.64,25.63,30.78c0,18.72-11.12,30.89-26.56,30.89
				c-14.28,0-19.66-12.29-19.66-12.29H1681c0,0,0.47,1.75,0.47,4.33v3.86c0,1.64-1.05,2.69-2.93,2.69h-1.87
				c-1.87,0-2.81-1.05-2.81-2.93V269.89z M1700.19,343.5c10.53,0,19.07-8.66,19.07-23.64c0-14.39-7.72-23.64-18.61-23.64
				c-9.83,0-19.07,7.02-19.07,23.64C1681.58,331.91,1687.67,343.5,1700.19,343.5z"/>
			<path class="st1" d="M1772.63,313.19h3.39v-1.87c0-11.35-6.2-15.21-14.51-15.21c-6.55,0-11.59,2.46-14.28,4.1
				c-1.64,0.82-2.93,0.59-3.98-0.94l-0.7-1.17c-0.94-1.52-0.7-3.04,0.82-3.98c3.04-1.87,9.6-5.15,18.72-5.15
				c14.04,0,21.88,7.84,21.88,22.58v34.75c0,1.87-0.94,2.93-2.81,2.93h-1.87c-1.87,0-2.93-0.94-2.93-2.93v-4.68
				c0-2.69,0.35-4.45,0.35-4.45h-0.23c0.12,0-5.27,13.46-19.89,13.46c-9.95,0-19.89-5.85-19.89-17.2
				C1736.7,314.24,1761.28,313.19,1772.63,313.19z M1758,343.97c11.35,0,18.02-11.7,18.02-22v-2.81h-3.28
				c-9.24,0-27.85,0.35-27.85,13.57C1744.9,338.23,1749.22,343.97,1758,343.97z"/>
			<path class="st1" d="M1801.18,293.3c0-1.87,1.05-2.93,2.93-2.93h2.11c1.76,0,2.81,1.05,2.81,2.93v6.79
				c0,2.34-0.47,4.21-0.47,4.21h0.23c2.22-5.38,9.95-15.33,23.76-15.33c14.63,0,19.78,8.31,19.78,22.82v34.52
				c0,1.87-1.05,2.93-2.93,2.93h-2.22c-1.87,0-2.81-1.05-2.81-2.93v-32.41c0-9.24-1.52-17.44-12.87-17.44
				c-12.52,0-22.35,10.3-22.35,23.99v25.86c0,1.87-0.94,2.93-2.81,2.93h-2.22c-1.87,0-2.93-1.05-2.93-2.93V293.3z"/>
			<path class="st1" d="M1896.44,288.97c10.06,0,16.62,4.33,19.54,6.67c1.4,1.05,1.52,2.46,0.35,3.98l-0.82,1.29
				c-1.05,1.64-2.34,1.64-3.98,0.58c-2.57-1.99-7.72-5.38-14.86-5.38c-12.87,0-22.94,9.71-22.94,23.76
				c0,13.93,10.06,23.64,23.05,23.64c8.19,0,13.81-3.86,16.62-6.2c1.52-1.17,2.81-0.94,3.86,0.7l0.82,1.17
				c0.94,1.52,0.58,2.81-0.7,3.98c-3.04,2.46-10.06,7.49-20.95,7.49c-17.55,0-30.89-12.52-30.89-30.78
				C1865.55,301.72,1879.01,288.97,1896.44,288.97z"/>
			<path class="st1" d="M1958,288.97c17.2,0,31.13,13.11,31.13,30.54c0,17.79-13.93,31.13-31.01,31.13
				c-17.2,0-31.13-13.34-31.13-31.13C1926.99,302.07,1940.92,288.97,1958,288.97z M1958.12,343.5c12.52,0,22.82-10.3,22.82-23.99
				c0-13.34-10.3-23.4-22.82-23.4c-12.64,0-22.94,10.06-22.94,23.4C1935.18,333.2,1945.48,343.5,1958.12,343.5z"/>
			<path class="st1" d="M2055.02,288.97c14.28,0,19.31,11.82,19.31,11.82h0.23c0,0-0.35-1.99-0.35-4.45v-26.45
				c0-1.87,1.05-2.93,2.92-2.93h2.22c1.87,0,2.81,1.05,2.81,2.93v76.41c0,1.87-0.94,2.93-2.81,2.93h-1.99
				c-1.87,0-2.93-0.94-2.93-2.81v-4.45c0-2.11,0.47-3.63,0.47-3.63h-0.23c0,0-5.03,12.29-20.48,12.29
				c-15.8,0-25.63-12.64-25.63-30.89C2028.57,301.14,2039.57,288.97,2055.02,288.97z M2055.37,343.5c9.83,0,19.07-7.02,19.07-23.76
				c0-11.94-6.09-23.52-18.72-23.52c-10.41,0-18.96,8.66-18.96,23.52C2036.76,334.25,2044.37,343.5,2055.37,343.5z"/>
			<path class="st1" d="M2125.46,288.97c15.68,0,24.57,11.35,24.57,28.08c0,1.64-1.29,2.93-3.04,2.93h-42.36
				c0.35,14.98,10.65,23.52,22.82,23.52c7.37,0,12.76-3.28,15.45-5.38c1.64-1.05,2.93-0.82,3.86,0.7l0.94,1.4
				c0.82,1.4,0.58,2.81-0.82,3.86c-3.16,2.34-10.18,6.55-19.66,6.55c-17.55,0-30.78-12.64-30.78-30.78
				C2096.44,300.55,2109.55,288.97,2125.46,288.97z M2141.96,314.01c-0.47-12.4-7.96-18.49-16.73-18.49
				c-9.83,0-18.37,6.55-20.24,18.49H2141.96z"/>
			<path class="st1" d="M2193.34,269.89c0-1.87,0.94-2.93,2.81-2.93h2.22c1.87,0,2.93,1.05,2.93,2.93v64.01
				c0,7.37,3.51,8.19,6.09,8.54c1.4,0.12,2.46,0.82,2.46,2.57v1.76c0,1.75-0.82,2.92-3.04,2.92c-4.8,0-13.46-1.52-13.46-14.39
				V269.89z"/>
			<path class="st1" d="M2252.67,313.19h3.39v-1.87c0-11.35-6.2-15.21-14.51-15.21c-6.55,0-11.59,2.46-14.28,4.1
				c-1.64,0.82-2.93,0.59-3.98-0.94l-0.7-1.17c-0.94-1.52-0.7-3.04,0.82-3.98c3.04-1.87,9.6-5.15,18.72-5.15
				c14.04,0,21.88,7.84,21.88,22.58v34.75c0,1.87-0.94,2.93-2.81,2.93h-1.87c-1.87,0-2.93-0.94-2.93-2.93v-4.68
				c0-2.69,0.35-4.45,0.35-4.45h-0.23c0.12,0-5.27,13.46-19.89,13.46c-9.95,0-19.89-5.85-19.89-17.2
				C2216.75,314.24,2241.32,313.19,2252.67,313.19z M2238.04,343.97c11.35,0,18.02-11.7,18.02-22v-2.81h-3.28
				c-9.24,0-27.85,0.35-27.85,13.57C2224.94,338.23,2229.27,343.97,2238.04,343.97z"/>
		</g>
		<path class="st1" d="M1847.95,449.69c0,45.75-33.87,73.97-88.53,73.97h-46.94v60.01h-38.62V375.72h85.56
			C1814.08,375.72,1847.95,403.65,1847.95,449.69z M1809.03,449.69c0-26.14-17.53-41.29-51.39-41.29h-45.16v82.59h45.16
			C1791.51,490.99,1809.03,475.84,1809.03,449.69z"/>
		<path class="st1" d="M2004.07,460.2h-113.08c4.05,21.05,21.59,34.55,46.69,34.55c16.19,0,28.88-5.13,39.13-15.65l18.08,20.78
			c-12.96,15.38-33.2,23.48-58.03,23.48c-48.31,0-79.62-31.04-79.62-73.95c0-42.91,31.58-73.68,74.49-73.68
			c42.1,0,72.87,29.42,72.87,74.49C2004.61,452.91,2004.34,456.96,2004.07,460.2z M1890.72,437.8h81.78
			c-2.7-20.78-18.62-35.09-40.75-35.09C1909.88,402.71,1893.96,416.74,1890.72,437.8z"/>
		<path class="st1" d="M2007.51,507.16l12.95-25.64c12.69,8.37,32.12,14.3,50.2,14.3c21.32,0,30.23-5.94,30.23-15.92
			c0-27.53-89.06-1.62-89.06-59.11c0-27.26,24.56-45.07,63.42-45.07c19.16,0,41.02,4.59,53.98,12.41l-12.96,25.64
			c-13.76-8.1-27.53-10.8-41.29-10.8c-20.51,0-30.23,6.75-30.23,16.19c0,29.15,89.06,3.24,89.06,59.65
			c0,26.99-24.83,44.53-65.31,44.53C2044.49,523.35,2020.47,516.33,2007.51,507.16z"/>
		<path class="st1" d="M2284.89,460.2h-113.08c4.05,21.05,21.59,34.55,46.69,34.55c16.19,0,28.88-5.13,39.14-15.65l18.08,20.78
			c-12.96,15.38-33.2,23.48-58.03,23.48c-48.31,0-79.62-31.04-79.62-73.95c0-42.91,31.58-73.68,74.49-73.68
			c42.1,0,72.87,29.42,72.87,74.49C2285.43,452.91,2285.16,456.96,2284.89,460.2z M2171.54,437.8h81.78
			c-2.7-20.78-18.62-35.09-40.75-35.09C2190.7,402.71,2174.78,416.74,2171.54,437.8z"/>
		<path class="st1" d="M2384.92,513.64c-8.1,6.48-20.24,9.72-32.39,9.72c-31.58,0-49.66-16.73-49.66-48.58v-69.36h-23.75v-26.99
			h23.75v-32.93h33.74v32.93h38.59v26.99h-38.59v68.55c0,14.04,7.02,21.59,19.97,21.59c7.02,0,13.76-1.89,18.89-5.94L2384.92,513.64
			z"/>
		<path class="st1" d="M2511.66,436.99v84.48h-31.85v-17.54c-8.1,12.42-23.75,19.43-45.34,19.43c-32.93,0-53.71-18.08-53.71-43.18
			c0-24.02,16.19-42.91,59.92-42.91h37.24v-2.16c0-19.7-11.88-31.31-35.9-31.31c-16.19,0-32.93,5.4-43.72,14.3l-13.23-24.56
			c15.38-11.88,37.78-17.81,61-17.81C2487.64,375.72,2511.66,395.42,2511.66,436.99z M2477.92,476.39v-16.73h-34.82
			c-22.94,0-29.15,8.64-29.15,19.16c0,12.15,10.26,19.97,27.53,19.97C2457.95,498.79,2472.25,491.23,2477.92,476.39z"/>
		<rect x="1626.34" y="438.25" class="st1" width="364.65" height="21.71"/>
		<g>
			<polygon class="st1" points="2500.26,315.89 2500.26,312.07 2498.93,312.67 2498.93,308.91 2498.04,309.3 2498.04,305.59 
				2475.74,315.61 2474.25,316.28 2410.29,345.01 2343.85,315.92 2341.43,314.87 2319.14,305.11 2319.14,308.8 2318.25,308.42 
				2318.25,312.16 2316.93,311.58 2316.93,315.37 2315.59,314.79 2315.59,319.22 2338.77,329.37 2410.36,360.7 2478.41,330.14 
				2501.6,319.73 2501.6,315.29 			"/>
			<path class="st1" d="M2381.38,224.19c0.13,0.08,0.27,0.14,0.39,0.23c0.13,0.08,0.24,0.18,0.34,0.3c0.33,0.16,0.66,0.33,0.98,0.51
				c0.32,0.18,0.64,0.37,0.95,0.57c0.2,0.13,0.4,0.22,0.59,0.28c0.07,0.02,0.13,0.02,0.2,0.03c0.12,0.02,0.23,0.05,0.35,0.05
				c0.01,0,0.02,0,0.03-0.01c0.14,0,0.27-0.04,0.41-0.07c0.07-0.02,0.13-0.02,0.2-0.04c0.2-0.07,0.41-0.16,0.62-0.28
				c4.14-2.38,8.29-4.76,12.42-7.16c0.19-0.11,0.36-0.18,0.53-0.23c0.06-0.02,0.11-0.02,0.17-0.03c0.11-0.02,0.22-0.04,0.33-0.04
				c0.12,0,0.23,0.03,0.35,0.06c0.06,0.01,0.11,0.01,0.17,0.03c0.17,0.06,0.35,0.14,0.54,0.26c1.75,1.06,3.54,2.06,5.32,3.07
				c0.29,0.16,0.58,0.34,0.86,0.51c0.92,0.54,1.85,1.07,2.81,1.55c0.95,0.48,1.93,0.91,2.94,1.28c0.5,0.17,0.99,0.36,1.5,0.5
				c1.23,0.45,2.51,0.59,3.79,0.64c0.77,0.03,1.54,0.02,2.31,0.03l0,0c0.07,0,0.15,0,0.22,0c0.31,0,0.63-0.02,0.95-0.03
				c0.16-0.01,0.31-0.01,0.47-0.01c0.51-0.03,1.02-0.06,1.52-0.11c1.57-0.14,3.05-0.59,4.52-1.13c0.14-0.05,0.28-0.09,0.42-0.11
				c0.04-0.01,0.09-0.01,0.13-0.01c0.09-0.01,0.17-0.02,0.26-0.01c0.1,0,0.2,0.02,0.3,0.04c0.05,0.01,0.1,0.01,0.15,0.03
				c0.15,0.05,0.29,0.11,0.44,0.2c0.81,0.49,1.61,1.01,2.55,1.22c0.11,0,0.22,0,0.32,0c1.01-0.24,1.86-0.79,2.73-1.32
				c0.45-0.28,0.45-0.58,0.03-0.92c-0.47-0.37-1.01-0.62-1.52-0.92c-0.99-0.57-0.99-0.71-0.12-1.46c0.17-0.15,0.33-0.29,0.49-0.44
				c0.47-0.45,0.89-0.94,1.21-1.48c0.43-0.72,0.69-1.52,0.68-2.47c-0.01-0.73-0.02-1.46-0.3-2.14c-0.09-0.23-0.22-0.45-0.38-0.66
				c-0.86-1.13-1.91-2.04-3.07-2.84c-2.26-1.54-4.67-2.83-7.04-4.2c-2.54-1.46-5.07-2.93-7.63-4.36c-0.13-0.07-0.25-0.12-0.38-0.16
				c-0.04-0.01-0.08-0.02-0.12-0.03c-0.1-0.02-0.2-0.04-0.31-0.04c-0.03,0-0.05-0.01-0.08-0.01c-0.01,0-0.03,0.01-0.04,0.01
				c-0.14,0-0.28,0.02-0.43,0.06c-0.69,0.18-1.28,0.55-1.87,0.91c-0.2,0.12-0.39,0.24-0.59,0.35c-0.96,0.54-1.92,1.09-2.88,1.64
				c-0.96,0.55-1.91,1.11-2.87,1.66c-0.13,0.08-0.26,0.13-0.39,0.17c-0.04,0.01-0.08,0.01-0.13,0.02c-0.08,0.02-0.17,0.04-0.25,0.04
				c-0.08,0-0.16-0.02-0.24-0.03c-0.04-0.01-0.08-0.01-0.13-0.02c-0.12-0.04-0.25-0.09-0.38-0.17c-0.6-0.36-1.25-0.65-1.82-1.05
				c-0.2-0.14-0.39-0.24-0.58-0.32c-0.06-0.02-0.12-0.02-0.19-0.04c-0.13-0.03-0.25-0.07-0.38-0.07c0,0-0.01,0-0.01,0
				c-0.12,0-0.24,0.04-0.36,0.06c-0.06,0.01-0.12,0.01-0.19,0.03c-0.19,0.07-0.37,0.16-0.57,0.3c-0.59,0.41-1.27,0.69-1.84,1.13
				c-0.39,0.3-0.38,0.53,0.01,0.82c0.24,0.19,0.51,0.33,0.78,0.48c0.48,0.28,0.98,0.53,1.45,0.84c0.44,0.29,0.42,0.51-0.02,0.8
				c-0.06,0.04-0.13,0.07-0.19,0.11c-6.57,3.78-13.15,7.56-19.73,11.34c-0.59,0.34-1.2,0.66-1.77,1.03
				C2380.78,223.32,2380.81,223.86,2381.38,224.19z M2412.91,210.22c1.1-0.65,2.22-1.26,3.31-1.92c0.14-0.08,0.27-0.14,0.39-0.18
				c0.04-0.01,0.08-0.01,0.12-0.02c0.08-0.02,0.17-0.03,0.25-0.03c0.09,0,0.18,0.03,0.27,0.05c0.04,0.01,0.09,0.01,0.13,0.03
				c0.13,0.05,0.27,0.12,0.42,0.22c0.8,0.55,1.68,0.97,2.52,1.45v0l0,0c0.32,0.19,0.63,0.37,0.95,0.56c1.6,0.93,3.2,1.86,4.82,2.75
				c0.43,0.24,0.85,0.5,1.26,0.78c0.41,0.28,0.8,0.58,1.17,0.91c1.32,1.16,1.44,2.57,0.36,3.95c-0.12,0.15-0.22,0.28-0.32,0.39
				c-0.03,0.04-0.06,0.06-0.09,0.09c-0.06,0.07-0.13,0.14-0.19,0.19c-0.03,0.03-0.06,0.05-0.1,0.07c-0.05,0.04-0.1,0.07-0.15,0.1
				c-0.03,0.02-0.07,0.03-0.1,0.04c-0.05,0.02-0.1,0.03-0.15,0.03c-0.04,0-0.08,0.01-0.12,0c-0.03,0-0.06-0.01-0.1-0.01
				c-0.05-0.01-0.11-0.03-0.17-0.05c-0.04-0.01-0.07-0.02-0.11-0.04c-0.07-0.03-0.14-0.06-0.22-0.1c-0.03-0.02-0.07-0.03-0.1-0.05
				c-0.12-0.06-0.25-0.13-0.39-0.22c-4.55-2.62-9.1-5.23-13.64-7.85c-0.28-0.16-0.73-0.25-0.75-0.63
				C2412.16,210.34,2412.65,210.38,2412.91,210.22z M2404.78,214.87c1.03-0.56,2.06-1.11,3.04-1.74c0.16-0.1,0.31-0.18,0.46-0.23
				c0.05-0.02,0.1-0.01,0.15-0.03c0.1-0.02,0.19-0.05,0.29-0.05c0.1,0,0.2,0.03,0.3,0.05c0.05,0.01,0.1,0.01,0.15,0.03
				c0.15,0.05,0.31,0.12,0.47,0.22c1.22,0.72,2.45,1.44,3.68,2.14c1.23,0.71,2.46,1.41,3.69,2.12c0.12,0.07,0.26,0.13,0.39,0.19
				c0.32,0.19,0.63,0.37,0.95,0.56c0.62,0.35,1.24,0.7,1.86,1.05c0.32,0.19,0.63,0.37,0.95,0.56c0.62,0.35,1.24,0.7,1.86,1.05h0
				c0.29,0.18,0.58,0.35,0.85,0.53c0.16,0.11,0.35,0.23,0.12,0.45h0c-0.45,0.14-0.89,0.25-1.33,0.34c-0.09,0.02-0.19,0.04-0.28,0.06
				c-0.43,0.08-0.85,0.13-1.27,0.16c-0.07,0-0.14,0-0.21,0.01c-0.37,0.02-0.73,0.02-1.09,0c-0.1,0-0.2-0.01-0.3-0.01
				c-0.41-0.03-0.83-0.08-1.23-0.14c-0.08-0.01-0.16-0.03-0.23-0.05c-0.35-0.07-0.69-0.14-1.03-0.24c-0.1-0.03-0.21-0.05-0.31-0.09
				c-0.4-0.12-0.8-0.25-1.2-0.4c-0.05-0.02-0.1-0.04-0.15-0.06c-0.35-0.14-0.71-0.29-1.06-0.46c-0.1-0.05-0.21-0.1-0.31-0.15
				c-0.39-0.19-0.78-0.39-1.17-0.61c-2.6-1.47-5.17-2.97-7.76-4.46c-0.11-0.06-0.22-0.12-0.32-0.2
				C2404.43,215.26,2404.37,215.09,2404.78,214.87z"/>
			<path class="st1" d="M2319.14,304.99l91.15,39.9l87.76-39.42l-19.15-8.56v-61.46l11.79-5.29v-9.79l-80.54-36.05l-83.66,35.6v9.79
				l14.47,6.33v59.67L2319.14,304.99z M2328.56,219.94l81.58-34.72l78.55,35.15l-21.15,9.5h0l-3.9,1.75l-53.5,24.02l-65.4-28.58
				l0.03-0.03L2328.56,219.94z M2461.1,243.45v45.49l-12.02-5.37v-34.73L2461.1,243.45z M2431.28,256.84v18.76l-12.01-5.38v-7.99
				L2431.28,256.84z M2401.47,262.53v7.42l-12.47,5.3v-18.18L2401.47,262.53z M2371.21,249.28v33.55l-12.46,5.3v-44.31
				L2371.21,249.28z M2357.93,233.68v0.01l-7.23-3.17L2357.93,233.68z M2349.4,309.59c6.39,0,11.57-2.6,11.57-5.78
				c0-1.28-0.83-2.46-2.22-3.41v-11.38l12.46-5.3v28.15c-1.93,1.04-3.12,2.42-3.12,3.95c0,3.19,5.18,5.78,11.57,5.78
				s11.57-2.6,11.57-5.78c0-1.28-0.82-2.45-2.22-3.41v-36.27l12.47-5.3v52.15c-1.93,1.04-3.12,2.42-3.12,3.95
				c0,3.19,5.18,5.78,11.57,5.78c6.39,0,11.57-2.6,11.57-5.78c0-1.28-0.82-2.46-2.22-3.41v-52.41l12.01,5.37v35.16
				c-1.92,1.04-3.11,2.41-3.11,3.94c0,0.03,0,0.07,0.01,0.11c-0.01,0.03-0.01,0.07-0.01,0.11c0,3.19,5.17,5.78,11.57,5.78
				c6.39,0,11.57-2.6,11.57-5.78c0-0.04-0.01-0.08-0.01-0.12c0-0.04,0.01-0.07,0.01-0.1c0-1.28-0.84-2.44-2.23-3.4v-27.74
				l12.02,5.38v10.7c-0.68,0.41-1.25,0.87-1.68,1.36c-0.92,0.82-1.44,1.78-1.44,2.79c0,3.2,5.18,5.78,11.57,5.78
				c4.7,0,8.73-1.4,10.54-3.41c0.94-0.84,1.47-1.79,1.47-2.82c0-1.41-1-2.7-2.67-3.7v-2.75l17.13,7.68l-85.74,38.5L2321.21,305
				l19.74-8.4v3.26c-1.93,1.04-3.12,2.42-3.12,3.95C2337.83,307,2343.01,309.59,2349.4,309.59z"/>
		</g>
	</g>
</g>
<g>
	<path class="st2" d="M2285.23,1946.58c0-1.86,0.93-2.91,2.79-2.91h2.21c1.86,0,2.91,1.05,2.91,2.91v26.17
		c0,2.68-0.46,4.77-0.46,4.77h0.23c0,0,5.12-11.98,20.12-11.98c15.7,0,25.47,12.56,25.47,30.59c0,18.61-11.05,30.71-26.4,30.71
		c-14.19,0-19.54-12.21-19.54-12.21h-0.23c0,0,0.47,1.74,0.47,4.3v3.84c0,1.63-1.05,2.68-2.91,2.68h-1.86
		c-1.86,0-2.79-1.05-2.79-2.91V1946.58z M2311.4,2019.74c10.47,0,18.96-8.61,18.96-23.5c0-14.31-7.68-23.5-18.49-23.5
		c-9.77,0-18.96,6.98-18.96,23.5C2292.91,2008.23,2298.96,2019.74,2311.4,2019.74z"/>
	<path class="st2" d="M2383.41,1989.61h3.37v-1.86c0-11.28-6.16-15.12-14.42-15.12c-6.51,0-11.52,2.44-14.19,4.07
		c-1.63,0.81-2.91,0.58-3.96-0.93l-0.7-1.16c-0.93-1.51-0.7-3.02,0.81-3.96c3.02-1.86,9.54-5.12,18.61-5.12
		c13.96,0,21.75,7.79,21.75,22.45v34.55c0,1.86-0.93,2.91-2.79,2.91h-1.86c-1.86,0-2.91-0.93-2.91-2.91v-4.65
		c0-2.68,0.35-4.42,0.35-4.42h-0.23c0.12,0-5.23,13.38-19.77,13.38c-9.89,0-19.77-5.82-19.77-17.1
		C2347.7,1990.66,2372.13,1989.61,2383.41,1989.61z M2368.87,2020.21c11.28,0,17.91-11.63,17.91-21.87v-2.79h-3.26
		c-9.19,0-27.68,0.35-27.68,13.49C2355.84,2014.51,2360.15,2020.21,2368.87,2020.21z"/>
	<path class="st2" d="M2411.79,1969.84c0-1.86,1.05-2.91,2.91-2.91h2.09c1.75,0,2.79,1.05,2.79,2.91v6.75
		c0,2.33-0.47,4.19-0.47,4.19h0.23c2.21-5.35,9.89-15.24,23.61-15.24c14.54,0,19.66,8.26,19.66,22.68v34.31
		c0,1.86-1.05,2.91-2.91,2.91h-2.21c-1.86,0-2.79-1.05-2.79-2.91v-32.22c0-9.19-1.51-17.33-12.79-17.33
		c-12.45,0-22.22,10.24-22.22,23.84v25.71c0,1.86-0.93,2.91-2.79,2.91h-2.21c-1.86,0-2.91-1.05-2.91-2.91V1969.84z"/>
	<path class="st2" d="M2506.48,1965.54c10,0,16.52,4.3,19.42,6.63c1.4,1.05,1.51,2.44,0.35,3.96l-0.81,1.28
		c-1.05,1.63-2.33,1.63-3.95,0.58c-2.56-1.98-7.68-5.35-14.77-5.35c-12.79,0-22.8,9.65-22.8,23.61c0,13.84,10,23.5,22.92,23.5
		c8.14,0,13.73-3.84,16.52-6.17c1.51-1.16,2.79-0.93,3.84,0.7l0.81,1.16c0.93,1.51,0.58,2.79-0.7,3.95
		c-3.02,2.44-10,7.44-20.82,7.44c-17.45,0-30.71-12.45-30.71-30.59C2475.77,1978.22,2489.15,1965.54,2506.48,1965.54z"/>
	<path class="st2" d="M2567.67,1965.54c17.1,0,30.94,13.03,30.94,30.36c0,17.68-13.84,30.94-30.82,30.94
		c-17.1,0-30.94-13.26-30.94-30.94C2536.84,1978.56,2550.69,1965.54,2567.67,1965.54z M2567.78,2019.74
		c12.45,0,22.68-10.24,22.68-23.85c0-13.26-10.24-23.26-22.68-23.26c-12.56,0-22.8,10-22.8,23.26
		C2544.98,2009.51,2555.22,2019.74,2567.78,2019.74z"/>
	<path class="st2" d="M2664.1,1965.54c14.19,0,19.19,11.75,19.19,11.75h0.23c0,0-0.35-1.98-0.35-4.42v-26.29
		c0-1.86,1.05-2.91,2.91-2.91h2.21c1.86,0,2.79,1.05,2.79,2.91v75.96c0,1.86-0.93,2.91-2.79,2.91h-1.98c-1.86,0-2.91-0.93-2.91-2.79
		v-4.42c0-2.09,0.46-3.61,0.46-3.61h-0.23c0,0-5,12.21-20.36,12.21c-15.7,0-25.47-12.56-25.47-30.71
		C2637.81,1977.63,2648.74,1965.54,2664.1,1965.54z M2664.45,2019.74c9.77,0,18.96-6.98,18.96-23.61c0-11.86-6.05-23.38-18.61-23.38
		c-10.35,0-18.84,8.61-18.84,23.38C2645.95,2010.55,2653.51,2019.74,2664.45,2019.74z"/>
	<path class="st2" d="M2734.13,1965.54c15.59,0,24.43,11.28,24.43,27.92c0,1.63-1.28,2.91-3.02,2.91h-42.11
		c0.35,14.89,10.58,23.38,22.68,23.38c7.33,0,12.68-3.26,15.35-5.35c1.63-1.05,2.91-0.81,3.84,0.7l0.93,1.4
		c0.81,1.4,0.58,2.79-0.81,3.84c-3.14,2.33-10.12,6.51-19.54,6.51c-17.45,0-30.59-12.56-30.59-30.59
		C2705.28,1977.05,2718.31,1965.54,2734.13,1965.54z M2750.53,1990.43c-0.46-12.33-7.91-18.38-16.63-18.38
		c-9.77,0-18.26,6.51-20.12,18.38H2750.53z"/>
	<path class="st2" d="M2801.59,1946.58c0-1.86,0.93-2.91,2.79-2.91h2.21c1.86,0,2.91,1.05,2.91,2.91v63.63
		c0,7.33,3.49,8.14,6.05,8.49c1.4,0.12,2.44,0.81,2.44,2.56v1.75c0,1.74-0.81,2.91-3.02,2.91c-4.77,0-13.38-1.51-13.38-14.31
		V1946.58z"/>
	<path class="st2" d="M2860.57,1989.61h3.37v-1.86c0-11.28-6.16-15.12-14.42-15.12c-6.51,0-11.52,2.44-14.19,4.07
		c-1.63,0.81-2.91,0.58-3.96-0.93l-0.7-1.16c-0.93-1.51-0.7-3.02,0.81-3.96c3.02-1.86,9.54-5.12,18.61-5.12
		c13.96,0,21.75,7.79,21.75,22.45v34.55c0,1.86-0.93,2.91-2.79,2.91h-1.86c-1.86,0-2.91-0.93-2.91-2.91v-4.65
		c0-2.68,0.35-4.42,0.35-4.42h-0.23c0.12,0-5.23,13.38-19.77,13.38c-9.89,0-19.77-5.82-19.77-17.1
		C2824.86,1990.66,2849.28,1989.61,2860.57,1989.61z M2846.03,2020.21c11.28,0,17.91-11.63,17.91-21.87v-2.79h-3.26
		c-9.19,0-27.68,0.35-27.68,13.49C2833,2014.51,2837.3,2020.21,2846.03,2020.21z"/>
</g>
<path class="st3" d="M2458.28,2125.3c0,45.48-33.66,73.53-88,73.53h-46.66v59.65h-38.39v-206.71h85.05
	C2424.61,2051.77,2458.28,2079.53,2458.28,2125.3z M2419.59,2125.3c0-25.99-17.42-41.05-51.09-41.05h-44.89v82.09h44.89
	C2402.17,2166.35,2419.59,2151.29,2419.59,2125.3z"/>
<path class="st3" d="M2886.6,2135.74h-112.41c4.02,20.93,21.46,34.34,46.41,34.34c16.1,0,28.71-5.1,38.9-15.56l17.97,20.66
	c-12.88,15.29-33,23.34-57.68,23.34c-48.02,0-79.14-30.85-79.14-73.51c0-42.66,31.39-73.24,74.04-73.24
	c41.85,0,72.43,29.24,72.43,74.04C2887.13,2128.5,2886.87,2132.52,2886.6,2135.74z M2773.92,2113.47h81.29
	c-2.68-20.66-18.51-34.88-40.51-34.88C2792.97,2078.6,2777.14,2092.55,2773.92,2113.47z"/>
<path class="st3" d="M2978.02,2188.86c-8.05,6.44-20.12,9.66-32.19,9.66c-31.39,0-49.36-16.63-49.36-48.29v-68.95h-23.61
	l-43.86-26.83h67.47v-32.73H2930v32.73h38.36v26.83H2930v68.14c0,13.95,6.98,21.46,19.85,21.46c6.98,0,13.68-1.88,18.78-5.9
	L2978.02,2188.86z"/>
<g>
	<path class="st3" d="M2819.8,2201.01c-23.97,0-44.48-7.41-59.3-21.44c-14.41-13.64-22.34-33.02-22.34-54.56
		c0-43.89,32.19-75.74,76.54-75.74c44.12,0,74.93,31.48,74.93,76.54c0,3.14-0.34,7.7-0.55,10.13l-0.19,2.29h-111.57
		c4.88,18.18,21.17,29.34,43.27,29.34c15.26,0,27.4-4.84,37.11-14.8l1.89-1.94l21.16,24.32l-1.38,1.64
		C2866.04,2192.64,2845.43,2201.01,2819.8,2201.01z M2852.27,2110.97c-3.57-18.25-18.04-29.88-37.57-29.88
		c-19.22,0-33.75,11.63-37.77,29.88H2852.27z"/>
	<path class="st1" d="M2814.7,2051.77c41.85,0,72.43,29.24,72.43,74.04c0,2.68-0.27,6.71-0.54,9.93h-112.41
		c4.02,20.93,21.46,34.34,46.41,34.34c16.1,0,28.71-5.1,38.9-15.56l17.97,20.66c-12.88,15.29-33,23.34-57.68,23.34
		c-48.02,0-79.14-30.85-79.14-73.51C2740.66,2082.35,2772.05,2051.77,2814.7,2051.77 M2773.92,2113.47h81.29
		c-2.68-20.66-18.51-34.88-40.51-34.88C2792.97,2078.6,2777.14,2092.55,2773.92,2113.47 M2814.7,2046.77
		c-22,0-42.08,7.83-56.52,22.06c-14.52,14.3-22.52,34.25-22.52,56.18c0,22.24,8.21,42.27,23.13,56.38
		c15.29,14.48,36.39,22.13,61.01,22.13c26.4,0,47.66-8.69,61.5-25.12l2.76-3.27l-2.81-3.23l-17.97-20.66l-3.56-4.1l-3.79,3.89
		c-9.34,9.58-20.56,14.05-35.32,14.05c-19.9,0-34.38-8.98-39.88-24.34h105.88h4.6l0.38-4.58c0.21-2.48,0.55-7.12,0.55-10.34
		C2892.13,2079.27,2860.29,2046.77,2814.7,2046.77L2814.7,2046.77z M2780.17,2108.47c4.64-15.29,17.66-24.88,34.53-24.88
		c17.16,0,30.14,9.58,34.41,24.88H2780.17L2780.17,2108.47z"/>
</g>
<path class="st3" d="M3104,2112.67v83.97h-31.66v-17.44c-8.05,12.34-23.61,19.32-45.07,19.32c-32.73,0-53.39-17.97-53.39-42.92
	c0-23.88,16.1-42.66,59.56-42.66h37.02v-2.15c0-19.58-11.8-31.12-35.68-31.12c-16.1,0-32.73,5.37-43.46,14.22l-13.15-24.41
	c15.29-11.8,37.56-17.71,60.63-17.71C3080.12,2051.77,3104,2071.35,3104,2112.67z M3070.47,2151.83v-16.63h-34.61
	c-22.8,0-28.97,8.58-28.97,19.05c0,12.07,10.19,19.85,27.36,19.85C3050.61,2174.1,3064.83,2166.59,3070.47,2151.83z"/>
<g>
	
		<linearGradient id="SVGID_00000145024369265391417960000018232375718571640981_" gradientUnits="userSpaceOnUse" x1="2910.9382" y1="2001.6239" x2="3189.7468" y2="2016.1771">
		<stop  offset="1.491781e-07" style="stop-color:#17DCBF"/>
		<stop  offset="0.1982" style="stop-color:#18D9C1"/>
		<stop  offset="0.3729" style="stop-color:#1CCEC6"/>
		<stop  offset="0.5388" style="stop-color:#22BCCF"/>
		<stop  offset="0.6991" style="stop-color:#2AA2DB"/>
		<stop  offset="0.8541" style="stop-color:#3582EB"/>
		<stop  offset="1" style="stop-color:#425CFD"/>
	</linearGradient>
	<polygon style="fill:url(#SVGID_00000145024369265391417960000018232375718571640981_);" points="3106.67,1992.3 3106.67,1988.5 
		3105.35,1989.1 3105.35,1985.36 3104.47,1985.75 3104.47,1982.06 3082.3,1992.02 3080.82,1992.69 3017.24,2021.24 2951.2,1992.33 
		2948.8,1991.28 2926.64,1981.58 2926.64,1985.25 2925.76,1984.87 2925.76,1988.59 2924.44,1988.01 2924.44,1991.78 2923.11,1991.2 
		2923.11,1995.61 2946.15,2005.7 3017.31,2036.84 3084.95,2006.46 3108,1996.11 3108,1991.7 	"/>
	
		<linearGradient id="SVGID_00000087372194316504247180000017570315052613694354_" gradientUnits="userSpaceOnUse" x1="2916.9336" y1="1886.7673" x2="3195.7419" y2="1901.3206">
		<stop  offset="1.491781e-07" style="stop-color:#17DCBF"/>
		<stop  offset="0.1982" style="stop-color:#18D9C1"/>
		<stop  offset="0.3729" style="stop-color:#1CCEC6"/>
		<stop  offset="0.5388" style="stop-color:#22BCCF"/>
		<stop  offset="0.6991" style="stop-color:#2AA2DB"/>
		<stop  offset="0.8541" style="stop-color:#3582EB"/>
		<stop  offset="1" style="stop-color:#425CFD"/>
	</linearGradient>
	<path style="fill:url(#SVGID_00000087372194316504247180000017570315052613694354_);" d="M2988.51,1901.15
		c0.13,0.08,0.27,0.14,0.39,0.22c0.13,0.08,0.24,0.17,0.34,0.3c0.33,0.16,0.65,0.33,0.97,0.51c0.32,0.18,0.63,0.37,0.94,0.56
		c0.2,0.13,0.4,0.21,0.59,0.27c0.07,0.02,0.13,0.02,0.2,0.03c0.12,0.02,0.23,0.05,0.35,0.05c0.01,0,0.02-0.01,0.03-0.01
		c0.14,0,0.27-0.03,0.41-0.07c0.07-0.02,0.13-0.02,0.2-0.04c0.2-0.07,0.41-0.16,0.61-0.28c4.12-2.37,8.24-4.73,12.35-7.12
		c0.19-0.11,0.36-0.18,0.53-0.23c0.06-0.02,0.11-0.02,0.17-0.03c0.11-0.02,0.22-0.04,0.33-0.04c0.12,0,0.23,0.03,0.35,0.06
		c0.06,0.01,0.11,0.01,0.17,0.03c0.17,0.06,0.35,0.14,0.53,0.25c1.74,1.05,3.52,2.05,5.29,3.05c0.29,0.16,0.57,0.33,0.86,0.5
		c0.92,0.54,1.84,1.06,2.79,1.54c0.95,0.48,1.92,0.91,2.92,1.27c0.5,0.17,0.98,0.36,1.49,0.5c1.23,0.45,2.49,0.59,3.77,0.64
		c0.76,0.03,1.53,0.02,2.3,0.03l0,0c0.07,0,0.15,0,0.22,0c0.31,0,0.63-0.02,0.94-0.03c0.16-0.01,0.31-0.01,0.47-0.01
		c0.5-0.03,1.01-0.06,1.51-0.11c1.56-0.14,3.04-0.59,4.49-1.12c0.14-0.05,0.28-0.09,0.41-0.11c0.04-0.01,0.09-0.01,0.13-0.01
		c0.09-0.01,0.17-0.02,0.26-0.01c0.1,0,0.2,0.02,0.3,0.04c0.05,0.01,0.1,0.01,0.15,0.03c0.15,0.05,0.29,0.11,0.44,0.2
		c0.81,0.48,1.6,1,2.53,1.22c0.11,0,0.21,0,0.32,0c1-0.24,1.85-0.78,2.71-1.31c0.45-0.28,0.45-0.58,0.03-0.91
		c-0.46-0.37-1-0.62-1.51-0.91c-0.98-0.57-0.98-0.71-0.12-1.45c0.17-0.14,0.33-0.29,0.49-0.44c0.47-0.45,0.89-0.93,1.21-1.47
		c0.43-0.71,0.69-1.51,0.68-2.45c-0.01-0.73-0.02-1.46-0.3-2.13c-0.09-0.22-0.21-0.44-0.38-0.65c-0.86-1.12-1.9-2.03-3.05-2.82
		c-2.24-1.54-4.64-2.82-6.99-4.17c-2.52-1.45-5.04-2.91-7.59-4.33c-0.12-0.07-0.25-0.12-0.38-0.16c-0.04-0.01-0.08-0.02-0.12-0.03
		c-0.1-0.02-0.2-0.04-0.3-0.04c-0.03,0-0.05-0.01-0.08-0.01c-0.01,0-0.03,0.01-0.04,0.01c-0.14,0-0.28,0.02-0.43,0.06
		c-0.69,0.18-1.27,0.55-1.86,0.91c-0.2,0.12-0.39,0.24-0.59,0.35c-0.96,0.54-1.91,1.08-2.86,1.63c-0.95,0.55-1.9,1.1-2.85,1.65
		c-0.13,0.08-0.26,0.13-0.39,0.17c-0.04,0.01-0.08,0.01-0.13,0.02c-0.08,0.02-0.17,0.04-0.25,0.04c-0.08,0-0.16-0.02-0.24-0.03
		c-0.04-0.01-0.08-0.01-0.12-0.02c-0.12-0.04-0.25-0.09-0.38-0.17c-0.59-0.36-1.24-0.65-1.81-1.05c-0.2-0.14-0.39-0.24-0.58-0.31
		c-0.06-0.02-0.12-0.02-0.18-0.04c-0.13-0.03-0.25-0.07-0.38-0.07c0,0-0.01,0-0.01,0c-0.12,0-0.24,0.04-0.35,0.06
		c-0.06,0.01-0.12,0.01-0.18,0.03c-0.19,0.07-0.37,0.16-0.56,0.3c-0.59,0.41-1.26,0.68-1.83,1.12c-0.39,0.3-0.38,0.52,0.01,0.82
		c0.24,0.19,0.51,0.33,0.78,0.48c0.48,0.27,0.97,0.53,1.44,0.83c0.43,0.29,0.42,0.51-0.02,0.79c-0.06,0.04-0.12,0.07-0.19,0.11
		c-6.54,3.76-13.07,7.51-19.61,11.27c-0.59,0.34-1.19,0.65-1.76,1.02C2987.91,1900.29,2987.94,1900.82,2988.51,1901.15z
		 M3019.84,1887.27c1.09-0.65,2.2-1.26,3.29-1.91c0.14-0.08,0.26-0.14,0.39-0.18c0.04-0.01,0.08-0.01,0.12-0.02
		c0.08-0.02,0.17-0.03,0.25-0.03c0.09,0,0.18,0.03,0.26,0.05c0.04,0.01,0.09,0.01,0.13,0.03c0.13,0.05,0.27,0.12,0.41,0.22
		c0.79,0.54,1.67,0.97,2.5,1.44l0,0l0,0c0.31,0.19,0.63,0.37,0.94,0.56c1.59,0.92,3.18,1.85,4.79,2.74
		c0.43,0.24,0.85,0.49,1.25,0.77c0.4,0.28,0.79,0.58,1.16,0.9c1.31,1.15,1.43,2.55,0.35,3.92c-0.12,0.15-0.22,0.28-0.32,0.39
		c-0.03,0.04-0.06,0.06-0.09,0.09c-0.06,0.07-0.13,0.14-0.19,0.19c-0.03,0.03-0.06,0.05-0.1,0.07c-0.05,0.04-0.1,0.07-0.15,0.1
		c-0.03,0.02-0.07,0.03-0.1,0.04c-0.05,0.02-0.1,0.03-0.15,0.03c-0.04,0-0.08,0.01-0.12,0c-0.03,0-0.06-0.01-0.1-0.01
		c-0.05-0.01-0.11-0.03-0.17-0.05c-0.04-0.01-0.07-0.02-0.11-0.04c-0.07-0.03-0.14-0.06-0.22-0.1c-0.03-0.02-0.07-0.03-0.1-0.05
		c-0.12-0.06-0.24-0.13-0.39-0.21c-4.52-2.6-9.04-5.2-13.56-7.8c-0.28-0.16-0.73-0.24-0.74-0.62
		C3019.1,1887.38,3019.58,1887.42,3019.84,1887.27z M3011.76,1891.89c1.02-0.55,2.05-1.1,3.02-1.73c0.16-0.1,0.31-0.18,0.46-0.23
		c0.05-0.02,0.1-0.01,0.15-0.03c0.1-0.02,0.19-0.05,0.29-0.05c0.1,0,0.2,0.03,0.3,0.05c0.05,0.01,0.1,0.01,0.15,0.03
		c0.15,0.05,0.31,0.12,0.47,0.22c1.21,0.72,2.43,1.43,3.66,2.13c1.22,0.7,2.45,1.4,3.67,2.11c0.12,0.07,0.26,0.13,0.38,0.19
		c0.32,0.19,0.63,0.37,0.95,0.56c0.62,0.35,1.23,0.7,1.85,1.05c0.32,0.19,0.63,0.37,0.95,0.56c0.62,0.35,1.23,0.7,1.85,1.05h0
		c0.28,0.18,0.57,0.34,0.85,0.53c0.16,0.11,0.35,0.23,0.12,0.45h0c-0.44,0.14-0.88,0.25-1.32,0.34c-0.09,0.02-0.19,0.04-0.28,0.06
		c-0.42,0.08-0.84,0.13-1.26,0.16c-0.07,0-0.14,0-0.2,0.01c-0.37,0.02-0.73,0.02-1.09,0c-0.1,0-0.2-0.01-0.29-0.01
		c-0.41-0.03-0.82-0.08-1.23-0.14c-0.08-0.01-0.15-0.03-0.23-0.05c-0.34-0.06-0.68-0.14-1.02-0.24c-0.1-0.03-0.21-0.05-0.31-0.08
		c-0.4-0.12-0.8-0.25-1.19-0.4c-0.05-0.02-0.1-0.04-0.15-0.06c-0.35-0.14-0.7-0.29-1.05-0.46c-0.1-0.05-0.21-0.1-0.31-0.15
		c-0.39-0.19-0.78-0.39-1.16-0.61c-2.58-1.46-5.14-2.95-7.71-4.43c-0.11-0.06-0.22-0.12-0.32-0.19
		C3011.41,1892.28,3011.36,1892.1,3011.76,1891.89z"/>
	
		<linearGradient id="SVGID_00000173840429898505833090000002901561444087654550_" gradientUnits="userSpaceOnUse" x1="2914.366" y1="1935.955" x2="3193.1746" y2="1950.5082">
		<stop  offset="1.491781e-07" style="stop-color:#17DCBF"/>
		<stop  offset="0.1982" style="stop-color:#18D9C1"/>
		<stop  offset="0.3729" style="stop-color:#1CCEC6"/>
		<stop  offset="0.5388" style="stop-color:#22BCCF"/>
		<stop  offset="0.6991" style="stop-color:#2AA2DB"/>
		<stop  offset="0.8541" style="stop-color:#3582EB"/>
		<stop  offset="1" style="stop-color:#425CFD"/>
	</linearGradient>
	<path style="fill:url(#SVGID_00000173840429898505833090000002901561444087654550_);" d="M2926.64,1981.46l90.6,39.66l87.23-39.18
		l-19.03-8.51v-61.09l11.72-5.26v-9.73l-80.06-35.83l-83.16,35.39v9.73l14.38,6.29v59.31L2926.64,1981.46z M2936,1896.92
		l81.09-34.51l78.08,34.94l-21.02,9.44h0l-3.87,1.74l-53.18,23.88l-65.01-28.41l0.03-0.03L2936,1896.92z M3067.75,1920.29v45.22
		l-11.95-5.34v-34.52L3067.75,1920.29z M3038.11,1933.6v18.65l-11.94-5.35v-7.94L3038.11,1933.6z M3008.48,1939.26v7.38l-12.39,5.27
		v-18.07L3008.48,1939.26z M2978.4,1926.09v33.35l-12.39,5.27v-44.04L2978.4,1926.09z M2965.2,1910.58v0.01l-7.19-3.15
		L2965.2,1910.58z M2956.72,1986.04c6.35,0,11.5-2.58,11.5-5.75c0-1.27-0.82-2.45-2.21-3.39v-11.31l12.39-5.27v27.98
		c-1.92,1.03-3.1,2.41-3.1,3.93c0,3.17,5.15,5.75,11.5,5.75c6.35,0,11.5-2.58,11.5-5.75c0-1.27-0.82-2.44-2.21-3.39v-36.05
		l12.39-5.27v51.84c-1.92,1.03-3.1,2.41-3.1,3.93c0,3.17,5.15,5.75,11.5,5.75c6.35,0,11.5-2.58,11.5-5.75
		c0-1.27-0.82-2.45-2.21-3.39v-52.1l11.94,5.34v34.95c-1.91,1.03-3.09,2.4-3.09,3.92c0,0.03,0,0.07,0.01,0.11
		c-0.01,0.03-0.01,0.07-0.01,0.11c0,3.17,5.14,5.75,11.5,5.75c6.35,0,11.5-2.58,11.5-5.75c0-0.04-0.01-0.08-0.01-0.12
		c0-0.04,0.01-0.07,0.01-0.1c0-1.27-0.83-2.43-2.22-3.38v-27.57l11.95,5.35v10.64c-0.68,0.41-1.24,0.86-1.67,1.35
		c-0.91,0.82-1.43,1.77-1.43,2.77c0,3.18,5.15,5.75,11.5,5.75c4.67,0,8.68-1.39,10.48-3.39c0.93-0.83,1.46-1.78,1.46-2.8
		c0-1.4-0.99-2.68-2.65-3.68v-2.73l17.03,7.63l-85.23,38.27l-88.54-38.75l19.62-8.35v3.24c-1.92,1.03-3.1,2.41-3.1,3.93
		C2945.22,1983.46,2950.37,1986.04,2956.72,1986.04z"/>
</g>
<g>
	<g>
		<path class="st2" d="M290.23,270.58c0-1.86,0.93-2.91,2.79-2.91h2.21c1.86,0,2.91,1.05,2.91,2.91v26.17
			c0,2.68-0.46,4.77-0.46,4.77h0.23c0,0,5.12-11.98,20.12-11.98c15.7,0,25.47,12.56,25.47,30.59c0,18.61-11.05,30.71-26.4,30.71
			c-14.19,0-19.54-12.21-19.54-12.21h-0.23c0,0,0.47,1.74,0.47,4.3v3.84c0,1.63-1.05,2.68-2.91,2.68h-1.86
			c-1.86,0-2.79-1.05-2.79-2.91V270.58z M316.4,343.74c10.47,0,18.96-8.61,18.96-23.5c0-14.31-7.68-23.5-18.49-23.5
			c-9.77,0-18.96,6.98-18.96,23.5C297.91,332.23,303.96,343.74,316.4,343.74z"/>
		<path class="st2" d="M388.41,313.61h3.37v-1.86c0-11.28-6.16-15.12-14.42-15.12c-6.51,0-11.52,2.44-14.19,4.07
			c-1.63,0.81-2.91,0.58-3.96-0.93l-0.7-1.16c-0.93-1.51-0.7-3.02,0.81-3.96c3.02-1.86,9.54-5.12,18.61-5.12
			c13.96,0,21.75,7.79,21.75,22.45v34.55c0,1.86-0.93,2.91-2.79,2.91h-1.86c-1.86,0-2.91-0.93-2.91-2.91v-4.65
			c0-2.68,0.35-4.42,0.35-4.42h-0.23c0.12,0-5.23,13.38-19.77,13.38c-9.89,0-19.77-5.82-19.77-17.1
			C352.7,314.66,377.13,313.61,388.41,313.61z M373.87,344.21c11.28,0,17.91-11.63,17.91-21.87v-2.79h-3.26
			c-9.19,0-27.68,0.35-27.68,13.49C360.84,338.51,365.15,344.21,373.87,344.21z"/>
		<path class="st2" d="M416.79,293.84c0-1.86,1.05-2.91,2.91-2.91h2.09c1.75,0,2.79,1.05,2.79,2.91v6.75c0,2.33-0.47,4.19-0.47,4.19
			h0.23c2.21-5.35,9.89-15.24,23.61-15.24c14.54,0,19.66,8.26,19.66,22.68v34.31c0,1.86-1.05,2.91-2.91,2.91h-2.21
			c-1.86,0-2.79-1.05-2.79-2.91v-32.22c0-9.19-1.51-17.33-12.79-17.33c-12.45,0-22.22,10.24-22.22,23.84v25.71
			c0,1.86-0.93,2.91-2.79,2.91h-2.21c-1.86,0-2.91-1.05-2.91-2.91V293.84z"/>
		<path class="st2" d="M511.48,289.54c10,0,16.52,4.3,19.42,6.63c1.4,1.05,1.51,2.44,0.35,3.96l-0.81,1.28
			c-1.05,1.63-2.33,1.63-3.95,0.58c-2.56-1.98-7.68-5.35-14.77-5.35c-12.79,0-22.8,9.65-22.8,23.61c0,13.84,10,23.5,22.92,23.5
			c8.14,0,13.73-3.84,16.52-6.17c1.51-1.16,2.79-0.93,3.84,0.7l0.81,1.16c0.93,1.51,0.58,2.79-0.7,3.95
			c-3.02,2.44-10,7.44-20.82,7.44c-17.45,0-30.71-12.45-30.71-30.59C480.77,302.22,494.15,289.54,511.48,289.54z"/>
		<path class="st2" d="M572.67,289.54c17.1,0,30.94,13.03,30.94,30.36c0,17.68-13.84,30.94-30.82,30.94
			c-17.1,0-30.94-13.26-30.94-30.94C541.84,302.56,555.69,289.54,572.67,289.54z M572.78,343.74c12.45,0,22.68-10.24,22.68-23.85
			c0-13.26-10.24-23.26-22.68-23.26c-12.56,0-22.8,10-22.8,23.26C549.98,333.51,560.22,343.74,572.78,343.74z"/>
		<path class="st2" d="M669.1,289.54c14.19,0,19.19,11.75,19.19,11.75h0.23c0,0-0.35-1.98-0.35-4.42v-26.29
			c0-1.86,1.05-2.91,2.91-2.91h2.21c1.86,0,2.79,1.05,2.79,2.91v75.96c0,1.86-0.93,2.91-2.79,2.91h-1.98
			c-1.86,0-2.91-0.93-2.91-2.79v-4.42c0-2.09,0.46-3.61,0.46-3.61h-0.23c0,0-5,12.21-20.36,12.21c-15.7,0-25.47-12.56-25.47-30.71
			C642.81,301.63,653.74,289.54,669.1,289.54z M669.45,343.74c9.77,0,18.96-6.98,18.96-23.61c0-11.86-6.05-23.38-18.61-23.38
			c-10.35,0-18.84,8.61-18.84,23.38C650.95,334.55,658.51,343.74,669.45,343.74z"/>
		<path class="st2" d="M739.13,289.54c15.59,0,24.43,11.28,24.43,27.92c0,1.63-1.28,2.91-3.02,2.91h-42.11
			c0.35,14.89,10.58,23.38,22.68,23.38c7.33,0,12.68-3.26,15.35-5.35c1.63-1.05,2.91-0.81,3.84,0.7l0.93,1.4
			c0.81,1.4,0.58,2.79-0.81,3.84c-3.14,2.33-10.12,6.51-19.54,6.51c-17.45,0-30.59-12.56-30.59-30.59
			C710.28,301.05,723.31,289.54,739.13,289.54z M755.53,314.43c-0.46-12.33-7.91-18.38-16.63-18.38c-9.77,0-18.26,6.51-20.12,18.38
			H755.53z"/>
		<path class="st2" d="M806.59,270.58c0-1.86,0.93-2.91,2.79-2.91h2.21c1.86,0,2.91,1.05,2.91,2.91v63.63
			c0,7.33,3.49,8.14,6.05,8.49c1.4,0.12,2.44,0.81,2.44,2.56V347c0,1.74-0.81,2.91-3.02,2.91c-4.77,0-13.38-1.51-13.38-14.31V270.58
			z"/>
		<path class="st2" d="M865.57,313.61h3.37v-1.86c0-11.28-6.16-15.12-14.42-15.12c-6.51,0-11.52,2.44-14.19,4.07
			c-1.63,0.81-2.91,0.58-3.96-0.93l-0.7-1.16c-0.93-1.51-0.7-3.02,0.81-3.96c3.02-1.86,9.54-5.12,18.61-5.12
			c13.96,0,21.75,7.79,21.75,22.45v34.55c0,1.86-0.93,2.91-2.79,2.91h-1.86c-1.86,0-2.91-0.93-2.91-2.91v-4.65
			c0-2.68,0.35-4.42,0.35-4.42h-0.23c0.12,0-5.23,13.38-19.77,13.38c-9.89,0-19.77-5.82-19.77-17.1
			C829.86,314.66,854.28,313.61,865.57,313.61z M851.03,344.21c11.28,0,17.91-11.63,17.91-21.87v-2.79h-3.26
			c-9.19,0-27.68,0.35-27.68,13.49C838,338.51,842.3,344.21,851.03,344.21z"/>
	</g>
	<path class="st3" d="M463.28,449.3c0,45.48-33.66,73.53-88,73.53h-46.66v59.65h-38.39V375.77h85.05
		C429.61,375.77,463.28,403.53,463.28,449.3z M424.59,449.3c0-25.99-17.42-41.05-51.09-41.05h-44.89v82.09h44.89
		C407.17,490.35,424.59,475.29,424.59,449.3z"/>
	<path class="st3" d="M618.46,459.74H506.06c4.02,20.92,21.46,34.34,46.41,34.34c16.1,0,28.7-5.1,38.9-15.56l17.97,20.66
		c-12.88,15.29-33,23.34-57.68,23.34c-48.02,0-79.14-30.85-79.14-73.51c0-42.66,31.39-73.24,74.04-73.24
		c41.85,0,72.43,29.24,72.43,74.04C619,452.5,618.73,456.52,618.46,459.74z M505.79,437.47h81.29
		c-2.68-20.66-18.51-34.88-40.51-34.88C524.83,402.6,509.01,416.55,505.79,437.47z"/>
	<path class="st3" d="M621.88,506.42l12.88-25.49c12.61,8.32,31.92,14.22,49.9,14.22c21.19,0,30.05-5.9,30.05-15.83
		c0-27.36-88.53-1.61-88.53-58.75c0-27.1,24.41-44.8,63.04-44.8c19.05,0,40.78,4.56,53.65,12.34l-12.88,25.49
		c-13.68-8.05-27.36-10.73-41.04-10.73c-20.39,0-30.05,6.71-30.05,16.1c0,28.97,88.53,3.22,88.53,59.29
		c0,26.83-24.68,44.27-64.92,44.27C658.64,522.51,634.76,515.54,621.88,506.42z"/>
	<path class="st3" d="M897.6,459.74H785.19c4.02,20.92,21.46,34.34,46.41,34.34c16.1,0,28.71-5.1,38.9-15.56l17.97,20.66
		c-12.88,15.29-33,23.34-57.68,23.34c-48.02,0-79.14-30.85-79.14-73.51c0-42.66,31.39-73.24,74.04-73.24
		c41.85,0,72.43,29.24,72.43,74.04C898.13,452.5,897.87,456.52,897.6,459.74z M784.92,437.47h81.29
		c-2.68-20.66-18.51-34.88-40.51-34.88C803.97,402.6,788.14,416.55,784.92,437.47z"/>
	<path class="st3" d="M997.02,512.86c-8.05,6.44-20.12,9.66-32.19,9.66c-31.39,0-49.36-16.63-49.36-48.29v-68.94h-23.61v-26.83
		h23.61v-32.73H949v32.73h38.36v26.83H949v68.14c0,13.95,6.97,21.46,19.85,21.46c6.97,0,13.68-1.88,18.78-5.9L997.02,512.86z"/>
	<path class="st3" d="M1123,436.67v83.97h-31.66V503.2c-8.05,12.34-23.61,19.32-45.07,19.32c-32.73,0-53.39-17.97-53.39-42.92
		c0-23.88,16.1-42.66,59.56-42.66h37.02v-2.15c0-19.58-11.8-31.12-35.68-31.12c-16.1,0-32.73,5.37-43.46,14.22l-13.15-24.41
		c15.29-11.8,37.56-17.71,60.63-17.71C1099.12,375.77,1123,395.35,1123,436.67z M1089.47,475.83V459.2h-34.61
		c-22.8,0-28.97,8.58-28.97,19.05c0,12.07,10.19,19.85,27.36,19.85C1069.61,498.1,1083.83,490.59,1089.47,475.83z"/>
	
		<linearGradient id="SVGID_00000137126665706787797040000014515862945688010881_" gradientUnits="userSpaceOnUse" x1="243" y1="448.7146" x2="605.4584" y2="448.7146">
		<stop  offset="1.491781e-07" style="stop-color:#11DEC1"/>
		<stop  offset="0.1969" style="stop-color:#12DBC3"/>
		<stop  offset="0.3703" style="stop-color:#16D0C8"/>
		<stop  offset="0.535" style="stop-color:#1DBED0"/>
		<stop  offset="0.6942" style="stop-color:#27A4DD"/>
		<stop  offset="0.8481" style="stop-color:#3384EC"/>
		<stop  offset="0.9988" style="stop-color:#425CFF"/>
		<stop  offset="1" style="stop-color:#425CFF"/>
	</linearGradient>
	
		<rect x="243" y="437.93" style="fill:url(#SVGID_00000137126665706787797040000014515862945688010881_);" width="362.46" height="21.57"/>
	<g>
		
			<linearGradient id="SVGID_00000093140508446128305630000017706945817364276646_" gradientUnits="userSpaceOnUse" x1="915.9382" y1="325.624" x2="1194.7468" y2="340.1772">
			<stop  offset="1.491781e-07" style="stop-color:#17DCBF"/>
			<stop  offset="0.1982" style="stop-color:#18D9C1"/>
			<stop  offset="0.3729" style="stop-color:#1CCEC6"/>
			<stop  offset="0.5388" style="stop-color:#22BCCF"/>
			<stop  offset="0.6991" style="stop-color:#2AA2DB"/>
			<stop  offset="0.8541" style="stop-color:#3582EB"/>
			<stop  offset="1" style="stop-color:#425CFD"/>
		</linearGradient>
		<polygon style="fill:url(#SVGID_00000093140508446128305630000017706945817364276646_);" points="1111.67,316.3 1111.67,312.5 
			1110.35,313.1 1110.35,309.36 1109.47,309.75 1109.47,306.06 1087.3,316.02 1085.82,316.69 1022.24,345.24 956.2,316.33 
			953.8,315.28 931.64,305.58 931.64,309.25 930.76,308.87 930.76,312.59 929.44,312.01 929.44,315.78 928.11,315.2 928.11,319.61 
			951.15,329.7 1022.31,360.84 1089.95,330.46 1113,320.11 1113,315.7 		"/>
		
			<linearGradient id="SVGID_00000100369459198339606340000001786507270054126005_" gradientUnits="userSpaceOnUse" x1="921.9335" y1="210.7673" x2="1200.7421" y2="225.3205">
			<stop  offset="1.491781e-07" style="stop-color:#17DCBF"/>
			<stop  offset="0.1982" style="stop-color:#18D9C1"/>
			<stop  offset="0.3729" style="stop-color:#1CCEC6"/>
			<stop  offset="0.5388" style="stop-color:#22BCCF"/>
			<stop  offset="0.6991" style="stop-color:#2AA2DB"/>
			<stop  offset="0.8541" style="stop-color:#3582EB"/>
			<stop  offset="1" style="stop-color:#425CFD"/>
		</linearGradient>
		<path style="fill:url(#SVGID_00000100369459198339606340000001786507270054126005_);" d="M993.51,225.15
			c0.13,0.08,0.27,0.14,0.39,0.22c0.13,0.08,0.24,0.17,0.34,0.3c0.33,0.16,0.65,0.33,0.97,0.51c0.32,0.18,0.63,0.37,0.94,0.56
			c0.2,0.13,0.4,0.21,0.59,0.27c0.07,0.02,0.13,0.02,0.2,0.03c0.12,0.02,0.23,0.05,0.35,0.05c0.01,0,0.02,0,0.03-0.01
			c0.14,0,0.27-0.03,0.41-0.07c0.07-0.01,0.13-0.02,0.2-0.04c0.2-0.07,0.41-0.16,0.61-0.28c4.12-2.37,8.24-4.73,12.35-7.12
			c0.19-0.11,0.36-0.18,0.53-0.23c0.06-0.02,0.11-0.02,0.17-0.03c0.11-0.02,0.22-0.04,0.33-0.04c0.12,0,0.23,0.03,0.35,0.06
			c0.06,0.01,0.11,0.01,0.17,0.03c0.17,0.06,0.35,0.14,0.53,0.25c1.74,1.05,3.52,2.05,5.29,3.05c0.29,0.16,0.57,0.33,0.86,0.5
			c0.92,0.54,1.84,1.06,2.79,1.54c0.95,0.48,1.92,0.91,2.92,1.27c0.5,0.17,0.98,0.36,1.49,0.5c1.23,0.45,2.49,0.59,3.77,0.64
			c0.76,0.03,1.53,0.02,2.3,0.03l0,0c0.07,0,0.15,0,0.22,0c0.31,0,0.63-0.02,0.94-0.03c0.16-0.01,0.31-0.01,0.47-0.01
			c0.5-0.03,1.01-0.06,1.51-0.11c1.56-0.14,3.04-0.59,4.49-1.12c0.14-0.05,0.28-0.09,0.41-0.11c0.04-0.01,0.09-0.01,0.13-0.01
			c0.09-0.01,0.17-0.02,0.26-0.01c0.1,0,0.2,0.02,0.3,0.04c0.05,0.01,0.1,0.01,0.15,0.03c0.15,0.05,0.29,0.11,0.44,0.2
			c0.81,0.48,1.6,1,2.53,1.22c0.11,0,0.21,0,0.32,0c1-0.24,1.85-0.78,2.71-1.31c0.45-0.28,0.45-0.58,0.03-0.91
			c-0.46-0.37-1-0.62-1.51-0.91c-0.98-0.57-0.98-0.71-0.12-1.45c0.17-0.14,0.33-0.29,0.49-0.44c0.47-0.45,0.89-0.93,1.21-1.47
			c0.43-0.71,0.69-1.51,0.68-2.45c-0.01-0.73-0.02-1.46-0.3-2.13c-0.09-0.22-0.21-0.44-0.38-0.65c-0.86-1.12-1.9-2.03-3.05-2.82
			c-2.24-1.54-4.64-2.82-6.99-4.17c-2.52-1.45-5.04-2.91-7.59-4.33c-0.12-0.07-0.25-0.12-0.38-0.16c-0.04-0.01-0.08-0.02-0.12-0.03
			c-0.1-0.02-0.2-0.04-0.3-0.04c-0.03,0-0.05-0.01-0.08-0.01c-0.01,0-0.03,0.01-0.04,0.01c-0.14,0-0.28,0.02-0.43,0.06
			c-0.69,0.18-1.27,0.55-1.86,0.91c-0.2,0.12-0.39,0.24-0.59,0.35c-0.96,0.54-1.91,1.08-2.86,1.63c-0.95,0.55-1.9,1.1-2.85,1.65
			c-0.13,0.08-0.26,0.13-0.39,0.17c-0.04,0.01-0.08,0.01-0.13,0.02c-0.08,0.02-0.17,0.04-0.25,0.04c-0.08,0-0.16-0.02-0.24-0.03
			c-0.04-0.01-0.08-0.01-0.12-0.02c-0.12-0.04-0.25-0.09-0.38-0.17c-0.59-0.36-1.24-0.65-1.81-1.05c-0.2-0.14-0.39-0.24-0.58-0.31
			c-0.06-0.02-0.12-0.02-0.18-0.04c-0.13-0.03-0.25-0.07-0.38-0.07c0,0-0.01,0-0.01,0c-0.12,0-0.24,0.04-0.35,0.06
			c-0.06,0.01-0.12,0.01-0.18,0.03c-0.19,0.07-0.37,0.16-0.56,0.3c-0.59,0.41-1.26,0.68-1.83,1.12c-0.39,0.3-0.38,0.52,0.01,0.82
			c0.24,0.19,0.51,0.33,0.78,0.48c0.48,0.27,0.97,0.53,1.44,0.83c0.43,0.29,0.42,0.51-0.02,0.79c-0.06,0.04-0.12,0.07-0.19,0.11
			c-6.54,3.76-13.07,7.51-19.61,11.27c-0.59,0.34-1.19,0.65-1.76,1.02C992.91,224.29,992.94,224.82,993.51,225.15z M1024.84,211.27
			c1.09-0.65,2.2-1.26,3.29-1.91c0.14-0.08,0.26-0.14,0.39-0.18c0.04-0.01,0.08-0.01,0.12-0.02c0.08-0.02,0.17-0.03,0.25-0.03
			c0.09,0,0.18,0.03,0.26,0.05c0.04,0.01,0.09,0.01,0.13,0.03c0.13,0.05,0.27,0.12,0.41,0.22c0.79,0.54,1.67,0.97,2.5,1.44v0l0,0
			c0.31,0.19,0.63,0.37,0.94,0.56c1.59,0.92,3.18,1.85,4.79,2.74c0.43,0.24,0.85,0.49,1.25,0.77c0.4,0.28,0.79,0.58,1.16,0.9
			c1.31,1.15,1.43,2.55,0.35,3.92c-0.12,0.15-0.22,0.28-0.32,0.39c-0.03,0.04-0.06,0.06-0.09,0.09c-0.06,0.07-0.13,0.14-0.19,0.19
			c-0.03,0.03-0.06,0.05-0.1,0.07c-0.05,0.04-0.1,0.07-0.15,0.1c-0.03,0.02-0.07,0.03-0.1,0.04c-0.05,0.02-0.1,0.03-0.15,0.03
			c-0.04,0-0.08,0.01-0.12,0c-0.03,0-0.06-0.01-0.1-0.01c-0.05-0.01-0.11-0.03-0.17-0.05c-0.04-0.01-0.07-0.02-0.11-0.04
			c-0.07-0.03-0.14-0.06-0.22-0.1c-0.03-0.02-0.07-0.03-0.1-0.05c-0.12-0.06-0.24-0.13-0.39-0.21c-4.52-2.6-9.04-5.2-13.56-7.8
			c-0.28-0.16-0.73-0.24-0.74-0.62C1024.1,211.38,1024.58,211.42,1024.84,211.27z M1016.76,215.89c1.02-0.55,2.05-1.1,3.02-1.73
			c0.16-0.1,0.31-0.18,0.46-0.23c0.05-0.02,0.1-0.01,0.15-0.03c0.1-0.02,0.19-0.05,0.29-0.05c0.1,0,0.2,0.03,0.3,0.05
			c0.05,0.01,0.1,0.01,0.15,0.03c0.15,0.05,0.31,0.12,0.47,0.22c1.21,0.72,2.43,1.43,3.66,2.13c1.22,0.7,2.45,1.4,3.67,2.11
			c0.12,0.07,0.26,0.13,0.38,0.19c0.32,0.19,0.63,0.37,0.95,0.56c0.62,0.35,1.23,0.7,1.85,1.05c0.32,0.19,0.63,0.37,0.95,0.56
			c0.62,0.35,1.23,0.7,1.85,1.05h0c0.28,0.18,0.57,0.34,0.85,0.53c0.16,0.11,0.35,0.23,0.12,0.45h0c-0.44,0.14-0.88,0.25-1.32,0.34
			c-0.09,0.02-0.19,0.04-0.28,0.06c-0.42,0.08-0.84,0.13-1.26,0.16c-0.07,0-0.14,0-0.2,0.01c-0.37,0.02-0.73,0.02-1.09,0
			c-0.1,0-0.2-0.01-0.29-0.01c-0.41-0.03-0.82-0.08-1.23-0.14c-0.08-0.01-0.15-0.03-0.23-0.05c-0.34-0.06-0.68-0.14-1.02-0.24
			c-0.1-0.03-0.21-0.05-0.31-0.08c-0.4-0.12-0.8-0.25-1.19-0.4c-0.05-0.02-0.1-0.04-0.15-0.06c-0.35-0.14-0.7-0.29-1.05-0.46
			c-0.1-0.05-0.21-0.1-0.31-0.15c-0.39-0.19-0.78-0.39-1.16-0.61c-2.58-1.46-5.14-2.95-7.71-4.43c-0.11-0.06-0.22-0.12-0.32-0.19
			C1016.41,216.28,1016.36,216.1,1016.76,215.89z"/>
		
			<linearGradient id="SVGID_00000044166230046436930310000011768982395758293932_" gradientUnits="userSpaceOnUse" x1="919.366" y1="259.955" x2="1198.1746" y2="274.5081">
			<stop  offset="1.491781e-07" style="stop-color:#17DCBF"/>
			<stop  offset="0.1982" style="stop-color:#18D9C1"/>
			<stop  offset="0.3729" style="stop-color:#1CCEC6"/>
			<stop  offset="0.5388" style="stop-color:#22BCCF"/>
			<stop  offset="0.6991" style="stop-color:#2AA2DB"/>
			<stop  offset="0.8541" style="stop-color:#3582EB"/>
			<stop  offset="1" style="stop-color:#425CFD"/>
		</linearGradient>
		<path style="fill:url(#SVGID_00000044166230046436930310000011768982395758293932_);" d="M931.64,305.46l90.6,39.66l87.23-39.18
			l-19.03-8.51v-61.09l11.72-5.26v-9.73l-80.06-35.83l-83.16,35.39v9.73l14.38,6.29v59.31L931.64,305.46z M941,220.92l81.09-34.51
			l78.08,34.94l-21.02,9.44h0l-3.87,1.74l-53.18,23.88L957.09,228l0.03-0.03L941,220.92z M1072.75,244.29v45.22l-11.95-5.34v-34.52
			L1072.75,244.29z M1043.11,257.6v18.65l-11.94-5.35v-7.94L1043.11,257.6z M1013.48,263.26v7.38l-12.39,5.27v-18.07L1013.48,263.26
			z M983.4,250.09v33.35l-12.39,5.27v-44.04L983.4,250.09z M970.2,234.58v0.01l-7.19-3.15L970.2,234.58z M961.72,310.04
			c6.35,0,11.5-2.58,11.5-5.75c0-1.27-0.82-2.45-2.21-3.39v-11.31l12.39-5.27v27.98c-1.92,1.03-3.1,2.41-3.1,3.93
			c0,3.17,5.15,5.75,11.5,5.75c6.35,0,11.5-2.58,11.5-5.75c0-1.27-0.82-2.44-2.21-3.39v-36.05l12.39-5.27v51.84
			c-1.92,1.03-3.1,2.41-3.1,3.93c0,3.17,5.15,5.75,11.5,5.75c6.35,0,11.5-2.58,11.5-5.75c0-1.27-0.82-2.45-2.21-3.39v-52.1
			l11.94,5.34v34.95c-1.91,1.03-3.09,2.4-3.09,3.92c0,0.03,0,0.07,0.01,0.11c-0.01,0.03-0.01,0.07-0.01,0.11
			c0,3.17,5.14,5.75,11.5,5.75c6.35,0,11.5-2.58,11.5-5.75c0-0.04-0.01-0.08-0.01-0.12c0-0.04,0.01-0.07,0.01-0.1
			c0-1.27-0.83-2.43-2.22-3.38v-27.57l11.95,5.35v10.64c-0.68,0.41-1.24,0.86-1.67,1.35c-0.91,0.82-1.43,1.77-1.43,2.77
			c0,3.18,5.15,5.75,11.5,5.75c4.67,0,8.68-1.39,10.48-3.39c0.93-0.83,1.46-1.78,1.46-2.8c0-1.4-0.99-2.68-2.65-3.68v-2.73
			l17.03,7.63l-85.23,38.27l-88.54-38.75l19.62-8.35v3.24c-1.92,1.03-3.1,2.41-3.1,3.93C950.22,307.46,955.37,310.04,961.72,310.04z
			"/>
	</g>
</g>
<g>
	<g>
		<path d="M1676.23,1058.58c0-1.86,0.93-2.91,2.79-2.91h2.21c1.86,0,2.91,1.05,2.91,2.91v26.17c0,2.68-0.46,4.77-0.46,4.77h0.23
			c0,0,5.12-11.98,20.12-11.98c15.7,0,25.47,12.56,25.47,30.59c0,18.61-11.05,30.71-26.4,30.71c-14.19,0-19.54-12.21-19.54-12.21
			h-0.23c0,0,0.47,1.74,0.47,4.3v3.84c0,1.63-1.05,2.68-2.91,2.68h-1.86c-1.86,0-2.79-1.05-2.79-2.91V1058.58z M1702.4,1131.74
			c10.47,0,18.96-8.61,18.96-23.5c0-14.31-7.68-23.5-18.49-23.5c-9.77,0-18.96,6.98-18.96,23.5
			C1683.91,1120.23,1689.96,1131.74,1702.4,1131.74z"/>
		<path d="M1774.41,1101.61h3.37v-1.86c0-11.28-6.16-15.12-14.42-15.12c-6.51,0-11.52,2.44-14.19,4.07
			c-1.63,0.81-2.91,0.58-3.96-0.93l-0.7-1.16c-0.93-1.51-0.7-3.02,0.81-3.96c3.02-1.86,9.54-5.12,18.61-5.12
			c13.96,0,21.75,7.79,21.75,22.45v34.55c0,1.86-0.93,2.91-2.79,2.91h-1.86c-1.86,0-2.91-0.93-2.91-2.91v-4.65
			c0-2.68,0.35-4.42,0.35-4.42h-0.23c0.12,0-5.23,13.38-19.77,13.38c-9.89,0-19.77-5.82-19.77-17.1
			C1738.7,1102.66,1763.13,1101.61,1774.41,1101.61z M1759.87,1132.21c11.28,0,17.91-11.63,17.91-21.87v-2.79h-3.26
			c-9.19,0-27.68,0.35-27.68,13.49C1746.84,1126.51,1751.15,1132.21,1759.87,1132.21z"/>
		<path d="M1802.79,1081.84c0-1.86,1.05-2.91,2.91-2.91h2.09c1.75,0,2.79,1.05,2.79,2.91v6.75c0,2.33-0.47,4.19-0.47,4.19h0.23
			c2.21-5.35,9.89-15.24,23.61-15.24c14.54,0,19.66,8.26,19.66,22.68v34.31c0,1.86-1.05,2.91-2.91,2.91h-2.21
			c-1.86,0-2.79-1.05-2.79-2.91v-32.22c0-9.19-1.51-17.33-12.79-17.33c-12.45,0-22.22,10.24-22.22,23.84v25.71
			c0,1.86-0.93,2.91-2.79,2.91h-2.21c-1.86,0-2.91-1.05-2.91-2.91V1081.84z"/>
		<path d="M1897.48,1077.54c10,0,16.52,4.3,19.42,6.63c1.4,1.05,1.51,2.44,0.35,3.96l-0.81,1.28c-1.05,1.63-2.33,1.63-3.95,0.58
			c-2.56-1.98-7.68-5.35-14.77-5.35c-12.79,0-22.8,9.65-22.8,23.61c0,13.84,10,23.5,22.92,23.5c8.14,0,13.73-3.84,16.52-6.17
			c1.51-1.16,2.79-0.93,3.84,0.7l0.81,1.16c0.93,1.51,0.58,2.79-0.7,3.95c-3.02,2.44-10,7.44-20.82,7.44
			c-17.45,0-30.71-12.45-30.71-30.59C1866.77,1090.22,1880.15,1077.54,1897.48,1077.54z"/>
		<path d="M1958.67,1077.54c17.1,0,30.94,13.03,30.94,30.36c0,17.68-13.84,30.94-30.82,30.94c-17.1,0-30.94-13.26-30.94-30.94
			C1927.84,1090.56,1941.69,1077.54,1958.67,1077.54z M1958.78,1131.74c12.45,0,22.68-10.24,22.68-23.85
			c0-13.26-10.24-23.26-22.68-23.26c-12.56,0-22.8,10-22.8,23.26C1935.98,1121.51,1946.22,1131.74,1958.78,1131.74z"/>
		<path d="M2055.1,1077.54c14.19,0,19.19,11.75,19.19,11.75h0.23c0,0-0.35-1.98-0.35-4.42v-26.29c0-1.86,1.05-2.91,2.91-2.91h2.21
			c1.86,0,2.79,1.05,2.79,2.91v75.96c0,1.86-0.93,2.91-2.79,2.91h-1.98c-1.86,0-2.91-0.93-2.91-2.79v-4.42
			c0-2.09,0.46-3.61,0.46-3.61h-0.23c0,0-5,12.21-20.36,12.21c-15.7,0-25.47-12.56-25.47-30.71
			C2028.81,1089.63,2039.74,1077.54,2055.1,1077.54z M2055.45,1131.74c9.77,0,18.96-6.98,18.96-23.61
			c0-11.86-6.05-23.38-18.61-23.38c-10.35,0-18.84,8.61-18.84,23.38C2036.95,1122.55,2044.51,1131.74,2055.45,1131.74z"/>
		<path d="M2125.13,1077.54c15.59,0,24.43,11.28,24.43,27.92c0,1.63-1.28,2.91-3.02,2.91h-42.11c0.35,14.89,10.58,23.38,22.68,23.38
			c7.33,0,12.68-3.26,15.35-5.35c1.63-1.05,2.91-0.81,3.84,0.7l0.93,1.4c0.81,1.4,0.58,2.79-0.81,3.84
			c-3.14,2.33-10.12,6.51-19.54,6.51c-17.45,0-30.59-12.56-30.59-30.59C2096.28,1089.05,2109.31,1077.54,2125.13,1077.54z
			 M2141.53,1102.43c-0.46-12.33-7.91-18.38-16.63-18.38c-9.77,0-18.26,6.51-20.12,18.38H2141.53z"/>
		<path d="M2192.59,1058.58c0-1.86,0.93-2.91,2.79-2.91h2.21c1.86,0,2.91,1.05,2.91,2.91v63.63c0,7.33,3.49,8.14,6.05,8.49
			c1.4,0.12,2.44,0.81,2.44,2.56v1.75c0,1.74-0.81,2.91-3.02,2.91c-4.77,0-13.38-1.51-13.38-14.31V1058.58z"/>
		<path d="M2251.57,1101.61h3.37v-1.86c0-11.28-6.16-15.12-14.42-15.12c-6.51,0-11.52,2.44-14.19,4.07
			c-1.63,0.81-2.91,0.58-3.96-0.93l-0.7-1.16c-0.93-1.51-0.7-3.02,0.81-3.96c3.02-1.86,9.54-5.12,18.61-5.12
			c13.96,0,21.75,7.79,21.75,22.45v34.55c0,1.86-0.93,2.91-2.79,2.91h-1.86c-1.86,0-2.91-0.93-2.91-2.91v-4.65
			c0-2.68,0.35-4.42,0.35-4.42h-0.23c0.12,0-5.23,13.38-19.77,13.38c-9.89,0-19.77-5.82-19.77-17.1
			C2215.86,1102.66,2240.28,1101.61,2251.57,1101.61z M2237.03,1132.21c11.28,0,17.91-11.63,17.91-21.87v-2.79h-3.26
			c-9.19,0-27.68,0.35-27.68,13.49C2224,1126.51,2228.3,1132.21,2237.03,1132.21z"/>
	</g>
	<path d="M1849.28,1237.3c0,45.48-33.66,73.53-88,73.53h-46.66v59.65h-38.39v-206.71h85.05
		C1815.61,1163.77,1849.28,1191.53,1849.28,1237.3z M1810.59,1237.3c0-25.99-17.42-41.05-51.09-41.05h-44.89v82.09h44.89
		C1793.17,1278.35,1810.59,1263.29,1810.59,1237.3z"/>
	<path d="M2004.46,1247.74h-112.41c4.02,20.92,21.46,34.34,46.41,34.34c16.1,0,28.7-5.1,38.9-15.56l17.97,20.66
		c-12.88,15.29-33,23.34-57.68,23.34c-48.02,0-79.14-30.85-79.14-73.51c0-42.66,31.39-73.24,74.04-73.24
		c41.85,0,72.43,29.24,72.43,74.04C2005,1240.5,2004.73,1244.52,2004.46,1247.74z M1891.79,1225.47h81.29
		c-2.68-20.66-18.51-34.88-40.51-34.88C1910.83,1190.6,1895.01,1204.55,1891.79,1225.47z"/>
	<path d="M2007.88,1294.42l12.88-25.49c12.61,8.32,31.92,14.22,49.9,14.22c21.19,0,30.05-5.9,30.05-15.83
		c0-27.36-88.53-1.61-88.53-58.75c0-27.1,24.41-44.8,63.04-44.8c19.05,0,40.78,4.56,53.65,12.34l-12.88,25.49
		c-13.68-8.05-27.36-10.73-41.04-10.73c-20.39,0-30.05,6.71-30.05,16.1c0,28.97,88.53,3.22,88.53,59.29
		c0,26.83-24.68,44.27-64.92,44.27C2044.64,1310.51,2020.76,1303.54,2007.88,1294.42z"/>
	<path d="M2283.6,1247.74h-112.41c4.02,20.92,21.46,34.34,46.41,34.34c16.1,0,28.71-5.1,38.9-15.56l17.97,20.66
		c-12.88,15.29-33,23.34-57.68,23.34c-48.02,0-79.14-30.85-79.14-73.51c0-42.66,31.39-73.24,74.04-73.24
		c41.85,0,72.43,29.24,72.43,74.04C2284.13,1240.5,2283.87,1244.52,2283.6,1247.74z M2170.92,1225.47h81.29
		c-2.68-20.66-18.51-34.88-40.51-34.88C2189.97,1190.6,2174.14,1204.55,2170.92,1225.47z"/>
	<path d="M2383.02,1300.86c-8.05,6.44-20.12,9.66-32.19,9.66c-31.39,0-49.36-16.63-49.36-48.29v-68.94h-23.61v-26.83h23.61v-32.73
		H2335v32.73h38.36v26.83H2335v68.14c0,13.95,6.98,21.46,19.85,21.46c6.98,0,13.68-1.88,18.78-5.9L2383.02,1300.86z"/>
	<path d="M2509,1224.67v83.97h-31.66v-17.44c-8.05,12.34-23.61,19.32-45.07,19.32c-32.73,0-53.39-17.97-53.39-42.92
		c0-23.88,16.1-42.66,59.56-42.66h37.02v-2.15c0-19.58-11.8-31.12-35.68-31.12c-16.1,0-32.73,5.37-43.46,14.22l-13.15-24.41
		c15.29-11.8,37.56-17.71,60.63-17.71C2485.12,1163.77,2509,1183.35,2509,1224.67z M2475.47,1263.83v-16.63h-34.61
		c-22.8,0-28.97,8.58-28.97,19.05c0,12.07,10.19,19.85,27.36,19.85C2455.61,1286.1,2469.83,1278.59,2475.47,1263.83z"/>
	<rect x="1629" y="1225.93" width="362.46" height="21.57"/>
	<g>
		<polygon points="2497.67,1104.3 2497.67,1100.5 2496.35,1101.1 2496.35,1097.36 2495.47,1097.75 2495.47,1094.06 2473.3,1104.02 
			2471.82,1104.69 2408.24,1133.24 2342.2,1104.33 2339.8,1103.28 2317.64,1093.58 2317.64,1097.25 2316.76,1096.87 
			2316.76,1100.59 2315.44,1100.01 2315.44,1103.78 2314.11,1103.2 2314.11,1107.61 2337.15,1117.7 2408.31,1148.84 
			2475.95,1118.46 2499,1108.11 2499,1103.7 		"/>
		<path d="M2379.51,1013.15c0.13,0.08,0.27,0.14,0.39,0.22c0.13,0.08,0.24,0.17,0.34,0.3c0.33,0.16,0.65,0.33,0.97,0.51
			c0.32,0.18,0.63,0.37,0.94,0.56c0.2,0.13,0.4,0.21,0.59,0.27c0.07,0.02,0.13,0.02,0.2,0.03c0.12,0.02,0.23,0.05,0.35,0.05
			c0.01,0,0.02,0,0.03-0.01c0.14,0,0.27-0.03,0.41-0.07c0.07-0.01,0.13-0.02,0.2-0.04c0.2-0.07,0.41-0.16,0.61-0.28
			c4.12-2.37,8.24-4.73,12.35-7.12c0.19-0.11,0.36-0.18,0.53-0.23c0.06-0.02,0.11-0.02,0.17-0.03c0.11-0.02,0.22-0.04,0.33-0.04
			c0.12,0,0.23,0.03,0.35,0.06c0.06,0.01,0.11,0.01,0.17,0.03c0.17,0.06,0.35,0.14,0.53,0.25c1.74,1.05,3.52,2.05,5.29,3.05
			c0.29,0.16,0.57,0.33,0.86,0.5c0.92,0.54,1.84,1.06,2.79,1.54c0.95,0.48,1.92,0.91,2.92,1.27c0.5,0.17,0.98,0.36,1.49,0.5
			c1.23,0.45,2.49,0.59,3.77,0.64c0.76,0.03,1.53,0.02,2.3,0.03l0,0c0.07,0,0.15,0,0.22,0c0.31,0,0.63-0.02,0.94-0.03
			c0.16-0.01,0.31-0.01,0.47-0.01c0.5-0.03,1.01-0.06,1.51-0.11c1.56-0.14,3.04-0.59,4.49-1.12c0.14-0.05,0.28-0.09,0.41-0.11
			c0.04-0.01,0.09-0.01,0.13-0.01c0.09-0.01,0.17-0.02,0.26-0.01c0.1,0,0.2,0.02,0.3,0.04c0.05,0.01,0.1,0.01,0.15,0.03
			c0.15,0.05,0.29,0.11,0.44,0.2c0.81,0.48,1.6,1,2.53,1.22c0.11,0,0.21,0,0.32,0c1-0.24,1.85-0.78,2.71-1.31
			c0.45-0.28,0.45-0.58,0.03-0.91c-0.46-0.37-1-0.62-1.51-0.91c-0.98-0.57-0.98-0.71-0.12-1.45c0.17-0.14,0.33-0.29,0.49-0.44
			c0.47-0.45,0.89-0.93,1.21-1.47c0.43-0.71,0.69-1.51,0.68-2.45c-0.01-0.73-0.02-1.46-0.3-2.13c-0.09-0.22-0.21-0.44-0.38-0.65
			c-0.86-1.12-1.9-2.03-3.05-2.82c-2.24-1.54-4.64-2.82-6.99-4.17c-2.52-1.45-5.04-2.91-7.59-4.33c-0.12-0.07-0.25-0.12-0.38-0.16
			c-0.04-0.01-0.08-0.02-0.12-0.03c-0.1-0.02-0.2-0.04-0.3-0.04c-0.03,0-0.05-0.01-0.08-0.01c-0.01,0-0.03,0.01-0.04,0.01
			c-0.14,0-0.28,0.02-0.43,0.06c-0.69,0.18-1.27,0.55-1.86,0.91c-0.2,0.12-0.39,0.24-0.59,0.35c-0.96,0.54-1.91,1.08-2.86,1.63
			c-0.95,0.55-1.9,1.1-2.85,1.65c-0.13,0.08-0.26,0.13-0.39,0.17c-0.04,0.01-0.08,0.01-0.13,0.02c-0.08,0.02-0.17,0.04-0.25,0.04
			c-0.08,0-0.16-0.02-0.24-0.03c-0.04-0.01-0.08-0.01-0.12-0.02c-0.12-0.04-0.25-0.09-0.38-0.17c-0.59-0.36-1.24-0.65-1.81-1.05
			c-0.2-0.14-0.39-0.24-0.58-0.31c-0.06-0.02-0.12-0.02-0.18-0.04c-0.13-0.03-0.25-0.07-0.38-0.07c0,0-0.01,0-0.01,0
			c-0.12,0-0.24,0.04-0.35,0.06c-0.06,0.01-0.12,0.01-0.18,0.03c-0.19,0.07-0.37,0.16-0.56,0.3c-0.59,0.41-1.26,0.68-1.83,1.12
			c-0.39,0.3-0.38,0.52,0.01,0.82c0.24,0.19,0.51,0.33,0.78,0.48c0.48,0.27,0.97,0.53,1.44,0.83c0.43,0.29,0.42,0.51-0.02,0.79
			c-0.06,0.04-0.12,0.07-0.19,0.11c-6.54,3.76-13.07,7.51-19.61,11.27c-0.59,0.34-1.19,0.65-1.76,1.02
			C2378.91,1012.29,2378.94,1012.82,2379.51,1013.15z M2410.84,999.27c1.09-0.65,2.2-1.26,3.29-1.91c0.14-0.08,0.26-0.14,0.39-0.18
			c0.04-0.01,0.08-0.01,0.12-0.02c0.08-0.02,0.17-0.03,0.25-0.03c0.09,0,0.18,0.03,0.26,0.05c0.04,0.01,0.09,0.01,0.13,0.03
			c0.13,0.05,0.27,0.12,0.41,0.22c0.79,0.54,1.67,0.97,2.5,1.44v0l0,0c0.31,0.19,0.63,0.37,0.94,0.56c1.59,0.92,3.18,1.85,4.79,2.74
			c0.43,0.24,0.85,0.49,1.25,0.77c0.4,0.28,0.79,0.58,1.16,0.9c1.31,1.15,1.43,2.55,0.35,3.92c-0.12,0.15-0.22,0.28-0.32,0.39
			c-0.03,0.04-0.06,0.06-0.09,0.09c-0.06,0.07-0.13,0.14-0.19,0.19c-0.03,0.03-0.06,0.05-0.1,0.07c-0.05,0.04-0.1,0.07-0.15,0.1
			c-0.03,0.02-0.07,0.03-0.1,0.04c-0.05,0.02-0.1,0.03-0.15,0.03c-0.04,0-0.08,0.01-0.12,0c-0.03,0-0.06-0.01-0.1-0.01
			c-0.05-0.01-0.11-0.03-0.17-0.05c-0.04-0.01-0.07-0.02-0.11-0.04c-0.07-0.03-0.14-0.06-0.22-0.1c-0.03-0.02-0.07-0.03-0.1-0.05
			c-0.12-0.06-0.24-0.13-0.39-0.21c-4.52-2.6-9.04-5.2-13.56-7.8c-0.28-0.16-0.73-0.24-0.74-0.62
			C2410.1,999.38,2410.58,999.42,2410.84,999.27z M2402.76,1003.89c1.02-0.55,2.05-1.1,3.02-1.73c0.16-0.1,0.31-0.18,0.46-0.23
			c0.05-0.02,0.1-0.01,0.15-0.03c0.1-0.02,0.19-0.05,0.29-0.05c0.1,0,0.2,0.03,0.3,0.05c0.05,0.01,0.1,0.01,0.15,0.03
			c0.15,0.05,0.31,0.12,0.47,0.22c1.21,0.72,2.43,1.43,3.66,2.13c1.22,0.7,2.45,1.4,3.67,2.11c0.12,0.07,0.26,0.13,0.38,0.19
			c0.32,0.19,0.63,0.37,0.95,0.56c0.62,0.35,1.23,0.7,1.85,1.05c0.32,0.19,0.63,0.37,0.95,0.56c0.62,0.35,1.23,0.7,1.85,1.05h0
			c0.28,0.18,0.57,0.34,0.85,0.53c0.16,0.11,0.35,0.23,0.12,0.45h0c-0.44,0.14-0.88,0.25-1.32,0.34c-0.09,0.02-0.19,0.04-0.28,0.06
			c-0.42,0.08-0.84,0.13-1.26,0.16c-0.07,0-0.14,0-0.2,0.01c-0.37,0.02-0.73,0.02-1.09,0c-0.1,0-0.2-0.01-0.29-0.01
			c-0.41-0.03-0.82-0.08-1.23-0.14c-0.08-0.01-0.15-0.03-0.23-0.05c-0.34-0.06-0.68-0.14-1.02-0.24c-0.1-0.03-0.21-0.05-0.31-0.08
			c-0.4-0.12-0.8-0.25-1.19-0.4c-0.05-0.02-0.1-0.04-0.15-0.06c-0.35-0.14-0.7-0.29-1.05-0.46c-0.1-0.05-0.21-0.1-0.31-0.15
			c-0.39-0.19-0.78-0.39-1.16-0.61c-2.58-1.46-5.14-2.95-7.71-4.43c-0.11-0.06-0.22-0.12-0.32-0.19
			C2402.41,1004.28,2402.36,1004.1,2402.76,1003.89z"/>
		<path d="M2317.64,1093.46l90.6,39.66l87.23-39.18l-19.03-8.51v-61.09l11.72-5.26v-9.73l-80.06-35.83l-83.16,35.39v9.73l14.38,6.29
			v59.31L2317.64,1093.46z M2327,1008.92l81.09-34.51l78.08,34.94l-21.02,9.44h0l-3.87,1.74l-53.18,23.88l-65.01-28.41l0.03-0.03
			L2327,1008.92z M2458.75,1032.29v45.22l-11.95-5.34v-34.52L2458.75,1032.29z M2429.11,1045.6v18.65l-11.94-5.35v-7.94
			L2429.11,1045.6z M2399.48,1051.26v7.38l-12.39,5.27v-18.07L2399.48,1051.26z M2369.4,1038.09v33.35l-12.39,5.27v-44.04
			L2369.4,1038.09z M2356.2,1022.58v0.01l-7.19-3.15L2356.2,1022.58z M2347.72,1098.04c6.35,0,11.5-2.58,11.5-5.75
			c0-1.27-0.82-2.45-2.21-3.39v-11.31l12.39-5.27v27.98c-1.92,1.03-3.1,2.41-3.1,3.93c0,3.17,5.15,5.75,11.5,5.75
			c6.35,0,11.5-2.58,11.5-5.75c0-1.27-0.82-2.44-2.21-3.39v-36.05l12.39-5.27v51.84c-1.92,1.03-3.1,2.41-3.1,3.93
			c0,3.17,5.15,5.75,11.5,5.75c6.35,0,11.5-2.58,11.5-5.75c0-1.27-0.82-2.45-2.21-3.39v-52.1l11.94,5.34v34.95
			c-1.91,1.03-3.09,2.4-3.09,3.92c0,0.03,0,0.07,0.01,0.11c-0.01,0.03-0.01,0.07-0.01,0.11c0,3.17,5.14,5.75,11.5,5.75
			c6.35,0,11.5-2.58,11.5-5.75c0-0.04-0.01-0.08-0.01-0.12c0-0.04,0.01-0.07,0.01-0.1c0-1.27-0.83-2.43-2.22-3.38v-27.57l11.95,5.35
			v10.64c-0.68,0.41-1.24,0.86-1.67,1.35c-0.91,0.82-1.43,1.77-1.43,2.77c0,3.18,5.15,5.75,11.5,5.75c4.67,0,8.68-1.39,10.48-3.39
			c0.93-0.83,1.46-1.78,1.46-2.8c0-1.4-0.99-2.68-2.65-3.68v-2.73l17.03,7.63l-85.23,38.27l-88.54-38.75l19.62-8.35v3.24
			c-1.92,1.03-3.1,2.41-3.1,3.93C2336.22,1095.46,2341.37,1098.04,2347.72,1098.04z"/>
	</g>
</g>
<g>
	<path class="st3" d="M1191.61,1118.35c-0.11,86.96-64.55,140.51-168.45,140.38l-89.22-0.11l-0.15,114.06l-73.4-0.09l0.51-395.26
		l162.62,0.21C1127.42,977.67,1191.73,1030.83,1191.61,1118.35z M1117.64,1118.25c0.06-49.69-33.21-78.53-97.58-78.61l-85.83-0.11
		l-0.2,156.97l85.83,0.11C1084.23,1196.7,1117.58,1167.94,1117.64,1118.25z"/>
	
		<linearGradient id="SVGID_00000015338271949142724710000001016545468076424373_" gradientUnits="userSpaceOnUse" x1="-69.1681" y1="1118.1042" x2="623.9056" y2="1118.1042" gradientTransform="matrix(0.5213 6.706501e-04 -1.286400e-03 1 807.9103 -1.3685)">
		<stop  offset="1.491781e-07" style="stop-color:#11DEC1"/>
		<stop  offset="0.1414" style="stop-color:#15D4C6"/>
		<stop  offset="0.38" style="stop-color:#1FBAD2"/>
		<stop  offset="0.6867" style="stop-color:#2F8FE7"/>
		<stop  offset="1" style="stop-color:#425CFF"/>
	</linearGradient>
	<polygon style="fill:url(#SVGID_00000015338271949142724710000001016545468076424373_);" points="770.39,1137.32 1131.71,1137.78 
		1131.77,1096.53 770.44,1096.06 	"/>
</g>
<g>
	
		<linearGradient id="SVGID_00000181069470486519652370000002090692655813221792_" gradientUnits="userSpaceOnUse" x1="-98.1278" y1="1326.4502" x2="696.4117" y2="1367.9235">
		<stop  offset="1.491781e-07" style="stop-color:#17DCBF"/>
		<stop  offset="0.1982" style="stop-color:#18D9C1"/>
		<stop  offset="0.3729" style="stop-color:#1CCEC6"/>
		<stop  offset="0.5388" style="stop-color:#22BCCF"/>
		<stop  offset="0.6991" style="stop-color:#2AA2DB"/>
		<stop  offset="0.8541" style="stop-color:#3582EB"/>
		<stop  offset="1" style="stop-color:#425CFD"/>
	</linearGradient>
	<polygon style="fill:url(#SVGID_00000181069470486519652370000002090692655813221792_);" points="459.66,1299.88 459.66,1289.05 
		455.9,1290.76 455.9,1280.1 453.39,1281.22 453.39,1270.7 390.21,1299.08 385.99,1300.99 204.8,1382.35 16.6,1299.97 9.76,1296.98 
		-53.39,1269.33 -53.39,1279.79 -55.89,1278.71 -55.89,1289.31 -59.66,1287.66 -59.66,1298.4 -63.45,1296.75 -63.45,1309.31 
		2.21,1338.07 205,1426.81 397.76,1340.23 463.45,1310.74 463.45,1298.17 	"/>
	
		<linearGradient id="SVGID_00000120540264925049992730000014963875610077413789_" gradientUnits="userSpaceOnUse" x1="-81.0427" y1="999.1354" x2="713.4968" y2="1040.6086">
		<stop  offset="1.491781e-07" style="stop-color:#17DCBF"/>
		<stop  offset="0.1982" style="stop-color:#18D9C1"/>
		<stop  offset="0.3729" style="stop-color:#1CCEC6"/>
		<stop  offset="0.5388" style="stop-color:#22BCCF"/>
		<stop  offset="0.6991" style="stop-color:#2AA2DB"/>
		<stop  offset="0.8541" style="stop-color:#3582EB"/>
		<stop  offset="1" style="stop-color:#425CFD"/>
	</linearGradient>
	<path style="fill:url(#SVGID_00000120540264925049992730000014963875610077413789_);" d="M122.93,1040.12
		c0.37,0.21,0.76,0.41,1.12,0.64c0.36,0.23,0.69,0.5,0.96,0.85c0.94,0.46,1.86,0.95,2.77,1.46c0.91,0.51,1.8,1.05,2.68,1.6
		c0.57,0.36,1.13,0.61,1.68,0.78c0.19,0.06,0.37,0.05,0.56,0.09c0.33,0.06,0.66,0.15,0.99,0.15c0.03,0,0.06-0.01,0.09-0.01
		c0.39-0.01,0.78-0.1,1.16-0.19c0.19-0.04,0.37-0.04,0.56-0.1c0.58-0.19,1.16-0.45,1.75-0.79c11.74-6.75,23.48-13.49,35.19-20.29
		c0.53-0.31,1.03-0.52,1.51-0.66c0.16-0.05,0.32-0.04,0.48-0.07c0.31-0.06,0.63-0.12,0.93-0.11c0.33,0.01,0.66,0.09,0.99,0.17
		c0.16,0.04,0.32,0.04,0.48,0.1c0.49,0.17,1,0.41,1.52,0.73c4.97,2.99,10.02,5.85,15.08,8.7c0.83,0.45,1.63,0.95,2.44,1.44
		c2.61,1.54,5.25,3.02,7.96,4.38c2.7,1.36,5.47,2.59,8.34,3.62c1.41,0.48,2.8,1.03,4.25,1.42c3.5,1.28,7.1,1.68,10.73,1.82
		c2.18,0.08,4.36,0.07,6.54,0.09l0,0c0.21,0,0.42,0,0.63,0c0.89,0,1.79-0.04,2.68-0.08c0.45-0.02,0.89-0.02,1.34-0.04
		c1.44-0.08,2.88-0.18,4.31-0.31c4.44-0.4,8.65-1.67,12.79-3.19c0.4-0.15,0.79-0.25,1.18-0.32c0.12-0.02,0.24-0.02,0.37-0.04
		c0.25-0.03,0.49-0.05,0.73-0.04c0.28,0.01,0.56,0.06,0.84,0.12c0.14,0.03,0.28,0.04,0.41,0.08c0.42,0.13,0.83,0.31,1.25,0.56
		c2.29,1.38,4.56,2.85,7.22,3.46c0.31,0,0.61,0,0.92,0c2.85-0.68,5.28-2.23,7.72-3.74c1.27-0.79,1.28-1.65,0.09-2.6
		c-1.32-1.05-2.86-1.76-4.31-2.6c-2.8-1.63-2.8-2.02-0.35-4.14c0.48-0.41,0.94-0.83,1.38-1.26c1.34-1.29,2.52-2.66,3.44-4.18
		c1.22-2.03,1.96-4.31,1.94-6.99c-0.02-2.08-0.05-4.15-0.84-6.06c-0.26-0.64-0.61-1.26-1.07-1.86c-2.44-3.19-5.4-5.79-8.7-8.04
		c-6.4-4.37-13.23-8.03-19.93-11.89c-7.19-4.14-14.37-8.3-21.62-12.35c-0.35-0.2-0.72-0.34-1.09-0.46
		c-0.11-0.03-0.22-0.06-0.33-0.08c-0.28-0.07-0.57-0.11-0.86-0.12c-0.07,0-0.14-0.03-0.22-0.03c-0.04,0-0.08,0.02-0.13,0.02
		c-0.39,0.01-0.79,0.05-1.22,0.17c-1.95,0.52-3.62,1.56-5.29,2.58c-0.56,0.34-1.11,0.68-1.68,1c-2.73,1.53-5.45,3.09-8.16,4.65
		c-2.71,1.57-5.42,3.14-8.12,4.71c-0.38,0.22-0.74,0.38-1.1,0.49c-0.12,0.04-0.24,0.03-0.36,0.06c-0.24,0.05-0.48,0.11-0.72,0.11
		c-0.23,0-0.46-0.05-0.69-0.1c-0.12-0.02-0.24-0.02-0.36-0.05c-0.35-0.11-0.71-0.27-1.07-0.49c-1.69-1.03-3.54-1.84-5.15-2.99
		c-0.56-0.4-1.1-0.69-1.64-0.89c-0.18-0.07-0.35-0.06-0.52-0.1c-0.36-0.09-0.72-0.2-1.08-0.2c-0.01,0-0.02-0.01-0.03-0.01
		c-0.33,0-0.67,0.1-1.01,0.18c-0.18,0.04-0.35,0.03-0.53,0.09c-0.53,0.19-1.06,0.47-1.61,0.84c-1.67,1.16-3.59,1.95-5.2,3.19
		c-1.1,0.84-1.07,1.49,0.02,2.33c0.68,0.53,1.46,0.93,2.21,1.36c1.37,0.78,2.78,1.51,4.1,2.38c1.24,0.81,1.2,1.45-0.06,2.27
		c-0.17,0.11-0.36,0.2-0.53,0.3c-18.62,10.71-37.26,21.41-55.89,32.11c-1.68,0.96-3.4,1.86-5.01,2.92
		C121.22,1037.66,121.3,1039.18,122.93,1040.12z M212.23,1000.56c3.11-1.84,6.28-3.58,9.38-5.44c0.39-0.23,0.75-0.4,1.11-0.51
		c0.12-0.04,0.23-0.03,0.35-0.06c0.24-0.05,0.47-0.1,0.7-0.09c0.25,0.01,0.5,0.07,0.75,0.14c0.13,0.03,0.25,0.03,0.37,0.08
		c0.38,0.14,0.77,0.35,1.18,0.63c2.26,1.55,4.75,2.76,7.14,4.11v0l0,0c0.9,0.53,1.8,1.06,2.69,1.59c4.54,2.62,9.06,5.26,13.65,7.8
		c1.22,0.67,2.41,1.41,3.56,2.2c1.15,0.8,2.26,1.65,3.32,2.58c3.74,3.28,4.08,7.28,1.01,11.18c-0.33,0.43-0.63,0.79-0.9,1.1
		c-0.09,0.1-0.16,0.17-0.24,0.26c-0.18,0.2-0.36,0.39-0.53,0.54c-0.09,0.08-0.18,0.14-0.27,0.21c-0.15,0.11-0.29,0.21-0.43,0.28
		c-0.09,0.05-0.19,0.08-0.29,0.11c-0.14,0.05-0.28,0.08-0.43,0.09c-0.11,0.01-0.23,0.01-0.35,0c-0.09-0.01-0.18-0.02-0.28-0.04
		c-0.15-0.03-0.31-0.08-0.47-0.13c-0.1-0.03-0.2-0.06-0.3-0.11c-0.19-0.08-0.41-0.18-0.63-0.29c-0.1-0.05-0.19-0.09-0.29-0.14
		c-0.34-0.18-0.7-0.38-1.11-0.61c-12.89-7.41-25.77-14.81-38.65-22.24c-0.81-0.47-2.07-0.7-2.11-1.78
		C210.11,1000.88,211.49,1001,212.23,1000.56z M189.19,1013.72c2.91-1.58,5.83-3.15,8.61-4.93c0.46-0.29,0.89-0.51,1.32-0.65
		c0.15-0.05,0.29-0.04,0.43-0.07c0.27-0.06,0.55-0.14,0.82-0.14c0.28,0,0.56,0.08,0.84,0.14c0.14,0.03,0.28,0.03,0.42,0.07
		c0.43,0.14,0.87,0.35,1.34,0.63c3.46,2.05,6.93,4.07,10.42,6.07c3.49,2,6.98,4,10.46,6c0.35,0.2,0.73,0.36,1.09,0.54
		c0.9,0.53,1.8,1.06,2.69,1.59c1.75,0.99,3.51,1.99,5.26,2.98c0.9,0.53,1.8,1.06,2.69,1.59c1.75,1,3.51,1.99,5.26,2.99h0
		c0.81,0.5,1.63,0.98,2.42,1.51c0.45,0.3,1,0.65,0.33,1.28h0c-1.27,0.41-2.52,0.71-3.76,0.96c-0.27,0.05-0.54,0.11-0.8,0.16
		c-1.21,0.21-2.4,0.37-3.59,0.45c-0.19,0.01-0.39,0.01-0.58,0.02c-1.04,0.05-2.07,0.05-3.1,0c-0.28-0.01-0.56-0.02-0.84-0.03
		c-1.17-0.08-2.34-0.21-3.5-0.41c-0.22-0.04-0.44-0.09-0.66-0.13c-0.98-0.18-1.95-0.41-2.92-0.67c-0.29-0.08-0.59-0.16-0.88-0.24
		c-1.14-0.33-2.27-0.71-3.39-1.14c-0.14-0.06-0.28-0.12-0.43-0.18c-1-0.4-2-0.83-3-1.3c-0.3-0.14-0.59-0.28-0.89-0.42
		c-1.11-0.54-2.22-1.11-3.31-1.74c-7.35-4.16-14.65-8.42-21.97-12.63c-0.31-0.18-0.62-0.35-0.91-0.56
		C188.2,1014.84,188.05,1014.34,189.19,1013.72z"/>
	
		<linearGradient id="SVGID_00000183234516994269831510000008220440473105010087_" gradientUnits="userSpaceOnUse" x1="-88.3594" y1="1139.3088" x2="706.1801" y2="1180.782">
		<stop  offset="1.491781e-07" style="stop-color:#17DCBF"/>
		<stop  offset="0.1982" style="stop-color:#18D9C1"/>
		<stop  offset="0.3729" style="stop-color:#1CCEC6"/>
		<stop  offset="0.5388" style="stop-color:#22BCCF"/>
		<stop  offset="0.6991" style="stop-color:#2AA2DB"/>
		<stop  offset="0.8541" style="stop-color:#3582EB"/>
		<stop  offset="1" style="stop-color:#425CFD"/>
	</linearGradient>
	<path style="fill:url(#SVGID_00000183234516994269831510000008220440473105010087_);" d="M-53.39,1268.99l258.19,113.02
		l248.59-111.65l-54.23-24.25v-174.09l33.4-14.99v-27.73L204.4,927.19l-236.99,100.85v27.73L8.4,1073.7v169.02L-53.39,1268.99z
		 M-26.71,1028.07l231.09-98.35l222.51,99.57l-59.9,26.9h0l-11.04,4.96l-151.54,68.05l-185.26-80.96l0.09-0.09L-26.71,1028.07z
		 M348.74,1094.67v128.87l-34.06-15.22v-98.37L348.74,1094.67z M264.28,1132.6v53.15l-34.03-15.25v-22.63L264.28,1132.6z
		 M179.84,1148.73v21.03l-35.31,15.02v-51.5L179.84,1148.73z M94.12,1111.2v95.04l-35.31,15.02v-125.5L94.12,1111.2z M56.5,1067
		v0.03l-20.49-8.98L56.5,1067z M32.33,1282.04c18.1,0,32.77-7.35,32.77-16.39c0-3.62-2.34-6.98-6.3-9.66v-32.23l35.31-15.02v79.74
		c-5.47,2.94-8.83,6.87-8.83,11.2c0,9.03,14.68,16.39,32.77,16.39c18.1,0,32.77-7.35,32.77-16.39c0-3.62-2.34-6.95-6.3-9.66v-102.73
		l35.31-15.02V1320c-5.47,2.94-8.83,6.87-8.83,11.2c0,9.03,14.68,16.39,32.77,16.39c18.1,0,32.77-7.35,32.77-16.39
		c0-3.62-2.34-6.98-6.3-9.66v-148.47l34.03,15.22v99.6c-5.44,2.94-8.81,6.84-8.81,11.17c0,0.09,0,0.2,0.03,0.31
		c-0.03,0.09-0.03,0.2-0.03,0.31c0,9.03,14.65,16.39,32.77,16.39c18.1,0,32.77-7.35,32.77-16.39c0-0.11-0.03-0.23-0.03-0.34
		s0.03-0.2,0.03-0.28c0-3.62-2.37-6.92-6.33-9.63v-78.57l34.06,15.25v30.32c-1.94,1.17-3.53,2.45-4.76,3.85
		c-2.59,2.34-4.08,5.04-4.08,7.89c0,9.06,14.68,16.39,32.77,16.39c13.31,0,24.74-3.96,29.87-9.66c2.65-2.37,4.16-5.07,4.16-7.98
		c0-3.99-2.82-7.64-7.55-10.49v-7.78l48.53,21.74L204.8,1379.45l-252.32-110.43l55.91-23.8v9.23c-5.47,2.94-8.83,6.87-8.83,11.2
		C-0.44,1274.69,14.24,1282.04,32.33,1282.04z"/>
</g>
<rect x="1502" y="1808.64" class="st2" width="91.26" height="91.26"/>
<linearGradient id="SVGID_00000151538591073985428430000002044500285525584005_" gradientUnits="userSpaceOnUse" x1="1547.629" y1="1914.4104" x2="1547.629" y2="2026.5505">
	<stop  offset="1.491781e-07" style="stop-color:#17DCBF"/>
	<stop  offset="0.1982" style="stop-color:#18D9C1"/>
	<stop  offset="0.3729" style="stop-color:#1CCEC6"/>
	<stop  offset="0.5388" style="stop-color:#22BCCF"/>
	<stop  offset="0.6991" style="stop-color:#2AA2DB"/>
	<stop  offset="0.8541" style="stop-color:#3582EB"/>
	<stop  offset="1" style="stop-color:#425CFD"/>
</linearGradient>
<rect x="1502" y="1910.53" style="fill:url(#SVGID_00000151538591073985428430000002044500285525584005_);" width="91.26" height="91.26"/>
<rect x="1603.86" y="1808.64" class="st3" width="193.14" height="193.14"/>
<path class="st3" d="M2945,2188l0.83,10.51c0,0,17.06,0.53,30.61-8.49S2994,2177,2994,2177l-13-20l-4-6c0,0-1.51,16.49-22.26,19.74
	S2945,2188,2945,2188z"/>
<path class="st3" d="M2613.88,2182.42l12.88-25.49c12.61,8.32,31.92,14.22,49.9,14.22c21.19,0,30.05-5.9,30.05-15.83
	c0-27.36-88.53-1.61-88.53-58.75c0-27.09,24.41-44.8,63.04-44.8c19.05,0,40.78,4.56,53.65,12.34l-12.88,25.49
	c-13.68-8.05-27.36-10.73-41.04-10.73c-20.39,0-30.05,6.71-30.05,16.1c0,28.97,88.53,3.22,88.53,59.29
	c0,26.83-24.68,44.27-64.92,44.27C2650.64,2198.51,2626.76,2191.54,2613.88,2182.42z"/>
<g>
	<path class="st3" d="M3027.27,2201.01c-33.43,0-55.89-18.25-55.89-45.42c0-16.86,8.06-45.16,62.06-45.16h34.52
		c-0.15-18.49-11.61-28.26-33.18-28.26c-15.62,0-31.67,5.23-41.87,13.65l-2.35,1.94l-15.6-28.96l1.68-1.3
		c15.23-11.75,37.3-18.23,62.16-18.23c44.28,0,67.69,21.92,67.69,63.4v86.47h-36.66v-12.81
		C3060.52,2195.96,3045.98,2201.01,3027.27,2201.01z M3035.86,2137.7c-23.73,0-26.47,9.44-26.47,16.55
		c0,10.87,9.29,17.35,24.86,17.35c16.1,0,28.66-7.56,33.72-20.24v-13.66H3035.86z"/>
	<path class="st1" d="M3038.81,2051.77c41.31,0,65.19,19.58,65.19,60.9v83.97h-31.66v-17.44c-8.05,12.34-23.61,19.32-45.07,19.32
		c-32.73,0-53.39-17.97-53.39-42.92c0-23.88,16.1-42.66,59.56-42.66h37.02v-2.15c0-19.58-11.8-31.12-35.68-31.12
		c-16.1,0-32.73,5.37-43.46,14.22l-13.15-24.41C2993.47,2057.67,3015.74,2051.77,3038.81,2051.77 M3034.25,2174.1
		c16.36,0,30.58-7.51,36.22-22.27v-16.63h-34.61c-22.8,0-28.97,8.58-28.97,19.05C3006.89,2166.32,3017.08,2174.1,3034.25,2174.1
		 M3038.81,2046.77c-25.41,0-48.02,6.66-63.68,18.75l-3.36,2.59l2.01,3.74l13.15,24.41l2.89,5.36l4.7-3.88
		c9.77-8.06,25.21-13.08,40.28-13.08c19.21,0,29.48,7.82,30.58,23.27h-31.92c-21.64,0-38.2,4.54-49.23,13.49
		c-10.03,8.14-15.33,19.96-15.33,34.16c0,13.75,5.77,26.06,16.24,34.68c10.53,8.66,25.11,13.24,42.14,13.24
		c16.53,0,30.3-4.07,40.07-11.66v4.78v5h5H3104h5v-5v-83.97c0-21.7-6.31-38.41-18.75-49.65
		C3078.32,2052.24,3061.01,2046.77,3038.81,2046.77L3038.81,2046.77z M3034.25,2169.1c-14,0-22.36-5.55-22.36-14.85
		c0-4.2,0-14.05,23.97-14.05h29.61v10.67C3060.69,2162.31,3049.1,2169.1,3034.25,2169.1L3034.25,2169.1z"/>
</g>
<path class="st3" d="M2613.46,2135.74c0.27-3.22,0.54-7.24,0.54-9.93c0-44.8-30.58-74.04-72.43-74.04
	c-42.65,0-74.04,30.58-74.04,73.24c0,42.65,31.12,73.51,79.14,73.51c24.68,0,44.8-8.05,57.68-23.34l-17.97-20.66
	c-10.19,10.46-22.8,15.56-38.9,15.56c-16.93,0-30.4-6.18-38.57-16.69c-0.91-1.01-1.83-2.28-2.73-3.89
	c-0.39-0.69-0.75-1.38-1.09-2.08c-1.6-3.07-2.83-6.39-3.65-9.95c-3.26-13.03-0.64-23.99-0.64-23.99
	c3.22-20.93,19.05-34.88,40.78-34.88c22,0,37.83,14.22,40.51,34.88c0,0,0.88,16.44,0.48,22.27H2613.46z"/>
<g>
	<rect x="2235.5" y="2111.43" class="st3" width="333" height="26.58"/>
	<path class="st1" d="M2566,2113.93v21.57h-328v-21.57H2566 M2571,2108.93h-5h-328h-5v5v21.57v5h5h328h5v-5v-21.57V2108.93
		L2571,2108.93z"/>
</g>
<linearGradient id="SVGID_00000065037170794496989980000008900355426810349978_" gradientUnits="userSpaceOnUse" x1="2238" y1="2124.7146" x2="2600.4583" y2="2124.7146">
	<stop  offset="1.491781e-07" style="stop-color:#11DEC1"/>
	<stop  offset="0.1969" style="stop-color:#12DBC3"/>
	<stop  offset="0.3703" style="stop-color:#16D0C8"/>
	<stop  offset="0.535" style="stop-color:#1DBED0"/>
	<stop  offset="0.6942" style="stop-color:#27A4DD"/>
	<stop  offset="0.8481" style="stop-color:#3384EC"/>
	<stop  offset="0.9988" style="stop-color:#425CFF"/>
	<stop  offset="1" style="stop-color:#425CFF"/>
</linearGradient>
<rect x="2238" y="2113.93" style="fill:url(#SVGID_00000065037170794496989980000008900355426810349978_);" width="362.46" height="21.57"/>
</svg>
